<svg width="20" height="20" viewBox="0 0 20 20" fill="none" xmlns="http://www.w3.org/2000/svg">
<path d="M15.2001 11.2C14.6224 12.3556 13.8001 13.6222 12.7335 15C11.889 16.1111 10.9779 17.1778 10.0001 18.2C9.02235 17.1778 8.11124 16.1111 7.2668 15C6.20013 13.6222 5.37791 12.3556 4.80013 11.2C4.08902 9.77778 3.73346 8.52222 3.73346 7.43333C3.73346 6.34444 4.01124 5.32222 4.5668 4.36667C5.12235 3.41111 5.88902 2.65555 6.8668 2.1C7.84457 1.54444 8.88902 1.26667 10.0001 1.26667C11.1112 1.26667 12.1557 1.54444 13.1335 2.1C14.1112 2.65555 14.8779 3.41111 15.4335 4.36667C15.989 5.32222 16.2668 6.34444 16.2668 7.43333C16.2668 8.52222 15.9112 9.77778 15.2001 11.2ZM10.0001 20C10.4001 19.6 10.8001 19.2 11.2001 18.8C12.1335 17.8222 12.9779 16.8222 13.7335 15.8C14.8446 14.3333 15.7112 12.9778 16.3335 11.7333C17.1335 10.1333 17.5335 8.71111 17.5335 7.46667C17.5335 6.13333 17.189 4.88889 16.5001 3.73333C15.8112 2.57778 14.9001 1.66667 13.7668 0.999998C12.6335 0.333332 11.3779 -1.90735e-06 10.0001 -1.90735e-06C8.62235 -1.90735e-06 7.3668 0.333332 6.23346 0.999998C5.10013 1.66667 4.18902 2.57778 3.50013 3.73333C2.81124 4.88889 2.4668 6.13333 2.4668 7.46667C2.4668 8.71111 2.8668 10.1333 3.6668 11.7333C4.28902 12.9778 5.15569 14.3333 6.2668 15.8C7.02235 16.8222 7.8668 17.8222 8.80013 18.8L10.0001 20ZM10.0001 10C9.28902 10 8.70013 9.75556 8.23346 9.26667C7.7668 8.77778 7.53346 8.18889 7.53346 7.5C7.53346 6.81111 7.7668 6.22222 8.23346 5.73333C8.70013 5.24444 9.28902 5 10.0001 5C10.7112 5 11.3112 5.24444 11.8001 5.73333C12.289 6.22222 12.5335 6.81111 12.5335 7.5C12.5335 8.18889 12.289 8.77778 11.8001 9.26667C11.3112 9.75556 10.7112 10 10.0001 10ZM10.0001 11.2667C11.0224 11.2667 11.9001 10.9 12.6335 10.1667C13.3668 9.43333 13.7335 8.54444 13.7335 7.5C13.7335 6.45555 13.3668 5.56667 12.6335 4.83333C11.9001 4.1 11.0224 3.73333 10.0001 3.73333C8.97791 3.73333 8.10013 4.1 7.3668 4.83333C6.63346 5.56667 6.2668 6.45555 6.2668 7.5C6.2668 8.54444 6.63346 9.43333 7.3668 10.1667C8.10013 10.9 8.97791 11.2667 10.0001 11.2667Z" fill="#F8A746"/>
</svg>
