<svg width="20" height="20" viewBox="0 0 20 20" fill="none" xmlns="http://www.w3.org/2000/svg">
<path d="M0 5.00013C0 4.28902 0.244444 3.68902 0.733333 3.20013C1.22222 2.71124 1.82222 2.4668 2.53333 2.4668H17.5333C18.2 2.4668 18.7778 2.71124 19.2667 3.20013C19.7556 3.68902 20 4.28902 20 5.00013V15.0001C20 15.7112 19.7556 16.3001 19.2667 16.7668C18.7778 17.2335 18.1778 17.4668 17.4667 17.4668H2.53333C1.82222 17.4668 1.22222 17.2335 0.733333 16.7668C0.244444 16.3001 0 15.7112 0 15.0001V5.00013ZM2.53333 3.73346C2.17778 3.73346 1.87778 3.85569 1.63333 4.10013C1.38889 4.34457 1.26667 4.64457 1.26667 5.00013V5.2668L10 10.5335L18.7333 5.2668V5.00013C18.7333 4.64457 18.6111 4.34457 18.3667 4.10013C18.1222 3.85569 17.8444 3.73346 17.5333 3.73346H2.53333ZM18.7333 6.73346L12.8667 10.2668L18.7333 13.8668V6.73346ZM18.7333 15.3335L11.6667 11.0001L10 12.0001L8.33333 11.0001L1.26667 15.3335C1.35556 15.6001 1.51111 15.8224 1.73333 16.0001C1.95556 16.1779 2.22222 16.2668 2.53333 16.2668H17.5333C17.8 16.2668 18.0444 16.1779 18.2667 16.0001C18.4889 15.8224 18.6444 15.6001 18.7333 15.3335ZM1.26667 13.8668L7.13333 10.2668L1.26667 6.73346V13.8668Z" fill="#F8A746"/>
</svg>
