<svg width="20" height="20" viewBox="0 0 20 20" fill="none" xmlns="http://www.w3.org/2000/svg">
<path d="M4.59999 1.66668C4.42221 1.44446 4.2111 1.33335 3.96665 1.33335C3.72221 1.33335 3.48887 1.42224 3.26665 1.60002L1.99998 2.86668C1.68887 3.17779 1.48887 3.53335 1.39998 3.93335C1.3111 4.33335 1.33332 4.71113 1.46665 5.06668C2.57776 8.22224 4.3111 10.9778 6.66665 13.3333C9.02221 15.6889 11.7778 17.4222 14.9333 18.5333C15.2889 18.6667 15.6667 18.6889 16.0667 18.6C16.4667 18.5111 16.8222 18.3111 17.1333 18L18.4 16.7333C18.5778 16.5111 18.6667 16.2778 18.6667 16.0333C18.6667 15.7889 18.5555 15.6 18.3333 15.4667L15.4667 13.2C15.2444 13.0222 15 12.9778 14.7333 13.0667L12 13.7333C11.6444 13.8222 11.2778 13.8111 10.9 13.7C10.5222 13.5889 10.2 13.4 9.93332 13.1333L6.86665 10.0667C6.59999 9.80001 6.4111 9.47779 6.29998 9.10001C6.18887 8.72224 6.17776 8.35557 6.26665 8.00001L6.93332 5.26668C7.02221 5.00001 6.97776 4.75557 6.79998 4.53335L4.59999 1.66668ZM2.33332 0.666681C2.82221 0.177794 3.38887 -0.0444298 4.03332 1.52588e-05C4.67776 0.0444603 5.19999 0.333349 5.59999 0.866682L7.86665 3.73335C8.08887 4.00001 8.23332 4.30001 8.29998 4.63335C8.36665 4.96668 8.35554 5.2889 8.26665 5.60001L7.59999 8.33335C7.5111 8.64446 7.57776 8.91113 7.79998 9.13335L10.8667 12.2C11.0889 12.4222 11.3555 12.4889 11.6667 12.4L14.4 11.7333C14.7111 11.6445 15.0333 11.6333 15.3667 11.7C15.7 11.7667 16 11.9111 16.2667 12.1333L19.1333 14.4C19.6667 14.8 19.9555 15.3222 20 15.9667C20.0444 16.6111 19.8222 17.1778 19.3333 17.6667L18.0667 18.9333C17.5778 19.4222 17.0111 19.7445 16.3667 19.9C15.7222 20.0556 15.0889 20.0222 14.4667 19.8C11.1333 18.6445 8.2111 16.8111 5.69999 14.3C3.18887 11.7889 1.35554 8.86668 0.199985 5.53335C-0.0222375 4.91113 -0.0555709 4.27779 0.0999847 3.63335C0.25554 2.9889 0.577762 2.42224 1.06665 1.93335L2.33332 0.666681Z" fill="#F8A746"/>
</svg>
