<?xml version="1.0" encoding="UTF-8"?>
<svg version="1.1" xmlns="http://www.w3.org/2000/svg" width="256" height="256">
<path d="M0 0 C2.52096309 2.2275585 4.98034211 4.50638231 7.42578125 6.81640625 C8.17601562 7.5021875 8.92625 8.18796875 9.69921875 8.89453125 C25.98970564 24.32762409 36.54719771 45.38249626 42.42578125 66.81640625 C42.93431641 68.57791016 42.93431641 68.57791016 43.453125 70.375 C51.37949267 103.7241875 43.69917207 138.85763396 26.42578125 167.81640625 C21.49702501 175.46447627 15.66316104 182.21338695 9.42578125 188.81640625 C8.74 189.56664062 8.05421875 190.316875 7.34765625 191.08984375 C-8.08543659 207.38033064 -29.14030876 217.93782271 -50.57421875 223.81640625 C-51.74855469 224.15542969 -52.92289063 224.49445313 -54.1328125 224.84375 C-87.482 232.77011767 -122.61544646 225.08979707 -151.57421875 207.81640625 C-159.22228877 202.88765001 -165.97119945 197.05378604 -172.57421875 190.81640625 C-173.32445312 190.130625 -174.0746875 189.44484375 -174.84765625 188.73828125 C-181.42700655 182.50521255 -186.63180803 175.37840139 -191.57421875 167.81640625 C-191.98720215 167.20700195 -192.40018555 166.59759766 -192.82568359 165.96972656 C-193.9921875 164.13671875 -193.9921875 164.13671875 -195.57421875 160.81640625 C-194.35636768 156.96353432 -191.4981705 154.48654558 -188.69726562 151.68066406 C-188.20275406 151.18264786 -187.70824249 150.68463165 -187.19874573 150.17152405 C-185.56847072 148.53247063 -183.9310179 146.90081259 -182.29296875 145.26953125 C-181.15689294 144.1321081 -180.02111415 142.99438821 -178.88562012 141.85638428 C-176.5082032 139.47602174 -174.12721327 137.09930743 -171.74365234 134.72509766 C-168.68336375 131.67622919 -165.63217526 128.61843585 -162.58358002 125.5578804 C-160.24182114 123.20890994 -157.89533879 120.86470483 -155.54737854 118.52193451 C-154.41993732 117.39583039 -153.29398797 116.26823064 -152.16954041 115.13913727 C-150.60152778 113.56606813 -149.02728699 111.99951539 -147.45117188 110.43457031 C-146.55563599 109.54062561 -145.6601001 108.64668091 -144.73742676 107.72564697 C-142.57421875 105.81640625 -142.57421875 105.81640625 -140.57421875 105.81640625 C-139.41825867 107.22538757 -139.41825867 107.22538757 -138.1315918 109.2253418 C-137.64736252 109.96999191 -137.16313324 110.71464203 -136.66423035 111.4818573 C-136.14339371 112.29737564 -135.62255707 113.11289398 -135.0859375 113.953125 C-134.54572464 114.78471634 -134.00551178 115.61630768 -133.44892883 116.47309875 C-131.71318809 119.14578315 -129.98654882 121.82416957 -128.26171875 124.50390625 C-126.5473389 127.16561154 -124.83086757 129.82581493 -123.10664368 132.4811554 C-122.03227535 134.13573621 -120.96347627 135.79395045 -119.90104675 137.45622253 C-115.06132899 145.37504264 -115.06132899 145.37504264 -107.26171875 149.56640625 C-97.70990231 147.62366392 -89.45749059 135.80098813 -82.75177383 129.03856087 C-80.61104578 126.88030283 -78.46667227 124.72572804 -76.32125854 122.5721283 C-70.22777054 116.45429165 -64.14010954 110.3306799 -58.05664062 104.20288086 C-54.32339749 100.44294105 -50.58536693 96.68781713 -46.8442955 92.93566704 C-45.42058664 91.50573627 -43.99877982 90.0739092 -42.57889175 88.6401844 C-40.60411473 86.64630918 -38.62336308 84.65856116 -36.64111328 82.67211914 C-36.05307419 82.07531845 -35.4650351 81.47851776 -34.85917664 80.8636322 C-30.80211792 76.81640625 -30.80211792 76.81640625 -28.57421875 76.81640625 C-28.55439941 77.43161133 -28.53458008 78.04681641 -28.51416016 78.68066406 C-28.41872148 81.47633167 -28.3091192 84.27127135 -28.19921875 87.06640625 C-28.16828125 88.03449219 -28.13734375 89.00257812 -28.10546875 90 C-28.06679687 90.93457031 -28.028125 91.86914062 -27.98828125 92.83203125 C-27.95686035 93.69086914 -27.92543945 94.54970703 -27.89306641 95.43457031 C-27.44686543 98.76775309 -26.56479657 101.04595683 -23.88671875 103.12890625 C-20.46098076 104.1473689 -18.01605801 103.67686607 -14.57421875 102.81640625 C-12.17979358 101.52963453 -12.17979358 101.52963453 -10.57421875 98.81640625 C-9.95317536 95.1041273 -9.99018997 91.4208816 -10.0078125 87.6640625 C-9.99851463 86.02563637 -9.99851463 86.02563637 -9.98902893 84.35411072 C-9.98192785 82.04508353 -9.98510972 79.73600517 -9.99780273 77.42700195 C-10.01165549 73.89503621 -9.97761415 70.36572579 -9.93945312 66.83398438 C-9.93850181 64.5898431 -9.94036139 62.34569851 -9.9453125 60.1015625 C-9.93205429 59.04622818 -9.91879608 57.99089386 -9.90513611 56.90357971 C-9.96205872 52.41744245 -10.13316326 49.57780236 -12.40820312 45.65039062 C-17.16205995 42.89661422 -21.45478234 43.11960188 -26.859375 43.1875 C-27.95261581 43.18508804 -29.04585663 43.18267609 -30.17222595 43.18019104 C-32.47951898 43.18116912 -34.78683558 43.19455321 -37.09399414 43.21948242 C-40.62792496 43.2538208 -44.15935953 43.24013016 -47.69335938 43.22070312 C-49.93620857 43.22760069 -52.17905131 43.23727225 -54.421875 43.25 C-55.47923355 43.24504013 -56.5365921 43.24008026 -57.62599182 43.23497009 C-63.28048143 43.23638305 -63.28048143 43.23638305 -68.21655273 45.66821289 C-69.98750474 48.47033602 -70.43909827 50.50595457 -70.57421875 53.81640625 C-69.52524293 57.66265091 -68.96884414 58.55332266 -65.57421875 60.81640625 C-63.15708396 61.18279215 -63.15708396 61.18279215 -60.46875 61.23046875 C-59.48583984 61.26914063 -58.50292969 61.3078125 -57.49023438 61.34765625 C-56.46607422 61.37859375 -55.44191406 61.40953125 -54.38671875 61.44140625 C-53.35095703 61.48007813 -52.31519531 61.51875 -51.24804688 61.55859375 C-48.69028253 61.65288921 -46.13252588 61.73848827 -43.57421875 61.81640625 C-45.19113098 65.85573453 -48.05028586 68.58127195 -51.07788086 71.59472656 C-51.63906113 72.16101776 -52.20024139 72.72730896 -52.77842712 73.3107605 C-54.63099984 75.17721076 -56.49088671 77.03616128 -58.3515625 78.89453125 C-59.64211271 80.18896811 -60.93243862 81.48362863 -62.22254944 82.77850342 C-64.92515813 85.48856942 -67.63160477 88.19473224 -70.34057617 90.8984375 C-73.81728562 94.36933936 -77.2824697 97.85150112 -80.7446661 101.3368721 C-83.40481868 104.01172663 -86.07183387 106.67965397 -88.74090767 109.34560394 C-90.0219177 110.62712852 -91.30055548 111.91102885 -92.57679558 113.19730377 C-94.35786361 114.99065617 -96.14814242 116.77427226 -97.94116211 118.55566406 C-98.46957703 119.09172272 -98.99799194 119.62778137 -99.54241943 120.18008423 C-103.23163272 123.81640625 -103.23163272 123.81640625 -106.57421875 123.81640625 C-108.2804931 121.62207724 -109.76879185 119.47367624 -111.25 117.1328125 C-111.69764206 116.44388412 -112.14528412 115.75495575 -112.60649109 115.04515076 C-114.04318264 112.8293198 -115.46513058 110.60445026 -116.88671875 108.37890625 C-117.83300809 106.91278087 -118.780263 105.44727822 -119.72851562 103.98242188 C-126.77291523 93.08823237 -126.77291523 93.08823237 -129.4543457 88.83227539 C-129.97085693 88.0252417 -130.48736816 87.21820801 -131.01953125 86.38671875 C-131.4386377 85.72043457 -131.85774414 85.05415039 -132.28955078 84.36767578 C-133.6898853 82.45410487 -133.6898853 82.45410487 -137.13671875 81.12890625 C-140.93952314 80.78319676 -142.22672941 81.09469468 -145.57421875 82.81640625 C-147.60342336 84.58950028 -149.46949494 86.35187988 -151.3425293 88.27587891 C-151.89600037 88.83212448 -152.44947144 89.38837006 -153.01971436 89.96147156 C-154.84039571 91.79440032 -156.6504277 93.63749725 -158.4609375 95.48046875 C-159.72615158 96.75636071 -160.99218019 98.03144545 -162.25898743 99.30575562 C-165.58699837 102.6565268 -168.90676169 106.01533611 -172.22399902 109.37677002 C-177.54283063 114.76585876 -182.86923761 120.14736782 -188.20478249 125.51990891 C-190.06942433 127.40130719 -191.92754867 129.288979 -193.7853241 131.17715454 C-194.92131816 132.32360342 -196.0575604 133.46980646 -197.1940918 134.61572266 C-197.71203812 135.14557266 -198.22998444 135.67542267 -198.7636261 136.22132874 C-199.99636762 137.45818558 -201.28078096 138.64316919 -202.57421875 139.81640625 C-203.23421875 139.81640625 -203.89421875 139.81640625 -204.57421875 139.81640625 C-205.20988063 137.90324915 -205.8320141 135.98559736 -206.44921875 134.06640625 C-206.79726562 132.9990625 -207.1453125 131.93171875 -207.50390625 130.83203125 C-210.45861817 120.4566241 -210.98069377 110.05224788 -210.94921875 99.31640625 C-210.94867493 98.61563965 -210.9481311 97.91487305 -210.9475708 97.19287109 C-210.82656601 63.15664281 -197.90647586 33.51641637 -174.57421875 8.81640625 C-173.8884375 8.06617188 -173.20265625 7.3159375 -172.49609375 6.54296875 C-157.06300091 -9.74751814 -136.00812874 -20.30501021 -114.57421875 -26.18359375 C-113.39988281 -26.52261719 -112.22554688 -26.86164062 -111.015625 -27.2109375 C-72.53579317 -36.35674638 -29.92130312 -25.38089294 0 0 Z " fill="#E7E5E2" transform="translate(210.57421875,29.18359375)"/>
</svg>
