<?xml version="1.0" encoding="UTF-8"?>
<svg version="1.1" xmlns="http://www.w3.org/2000/svg" width="256" height="256">
<path d="M0 0 C1.4961345 -0.00571487 2.99226465 -0.01268341 4.48838806 -0.02079773 C8.52166968 -0.03862361 12.55473248 -0.03758055 16.58804154 -0.03185534 C19.96982126 -0.0287473 23.35155992 -0.03487397 26.73333377 -0.04089409 C34.72004426 -0.05490377 42.70664771 -0.0534085 50.69335938 -0.04199219 C58.89873161 -0.03052159 67.10377658 -0.0445769 75.30910569 -0.07138866 C82.3846702 -0.09363256 89.46013264 -0.10016336 96.53572959 -0.09431225 C100.74806447 -0.0909613 104.96018982 -0.09323218 109.17249489 -0.11056328 C113.13801832 -0.12616919 117.10306187 -0.12192802 121.06856728 -0.10325813 C122.5123842 -0.09960924 123.95623778 -0.10257074 125.4000206 -0.11314392 C143.40395374 -0.23478281 158.52000856 4.69781764 171.62963867 17.20874023 C172.35795898 17.93319336 173.0862793 18.65764648 173.83666992 19.40405273 C174.66618164 20.18135742 174.66618164 20.18135742 175.51245117 20.97436523 C179.29988332 24.87409321 181.6406667 29.53914147 184.08666992 34.34155273 C184.42843262 35.01001221 184.77019531 35.67847168 185.12231445 36.3671875 C185.44570801 37.02775146 185.76910156 37.68831543 186.10229492 38.36889648 C186.38878906 38.95276123 186.6752832 39.53662598 186.97045898 40.13818359 C189.5008362 46.75724531 190.13194853 52.84783741 190.11132812 59.85839844 C190.11899452 61.22353073 190.11899452 61.22353073 190.1268158 62.61624146 C190.14063694 65.60417384 190.13976045 68.59187357 190.13745117 71.57983398 C190.14134262 73.6719725 190.14567821 75.76411023 190.1504364 77.85624695 C190.15788287 82.23475712 190.15761905 86.61318664 190.15234375 90.99169922 C190.14655578 96.57983488 190.16347173 102.16763838 190.18668842 107.75571918 C190.20148077 112.07537235 190.20228991 116.39494658 190.1991787 120.71462059 C190.19968929 122.77373092 190.20487745 124.83284598 190.21499062 126.89193153 C190.30382927 147.5109655 190.30382927 147.5109655 186.83666992 156.40405273 C186.36229492 157.62995117 185.88791992 158.85584961 185.39916992 160.11889648 C177.76928303 175.85553819 166.27972135 186.6665856 149.98901367 193.36108398 C140.92173143 196.36103982 132.53717153 196.69724732 123.05224609 196.67871094 C121.57286829 196.68306531 120.09349274 196.68825086 118.61412048 196.69419861 C114.6180817 196.70752327 110.62213788 196.7081745 106.62608123 196.70563531 C103.27901595 196.70456095 99.93196952 196.70946092 96.58490831 196.71424073 C88.68175378 196.72531377 80.7786468 196.72578604 72.87548828 196.71972656 C64.74856296 196.71369086 56.62181095 196.72599256 48.49491519 196.74729663 C41.49416832 196.76496726 34.49347635 196.77090533 27.49270803 196.76765889 C23.32179853 196.76585426 19.15101263 196.76839948 14.98012352 196.78237343 C11.05410543 196.79503613 7.1283555 196.7929288 3.20234108 196.77996254 C1.77058442 196.77761529 0.33880838 196.7802641 -1.09292603 196.78858566 C-19.14857063 196.88587086 -34.86696437 192.25829751 -48.10107422 179.66381836 C-58.92916661 168.84860123 -66.29151909 154.94303188 -66.456604 139.46081543 C-66.45569763 138.61233032 -66.45479126 137.76384521 -66.45385742 136.88964844 C-66.46057465 135.97301926 -66.46729187 135.05639008 -66.47421265 134.11198425 C-66.49310812 131.10121133 -66.49711285 128.09066241 -66.49926758 125.07983398 C-66.50570234 122.97006644 -66.5124312 120.86029977 -66.5194397 118.75053406 C-66.53139208 114.33334283 -66.53512272 109.91622968 -66.53393555 105.49902344 C-66.5337327 99.86840696 -66.56100857 94.23829715 -66.59547997 88.60780048 C-66.617837 84.25031789 -66.62177036 79.89295542 -66.62071609 75.53542137 C-66.62305982 73.46120652 -66.63181322 71.38698773 -66.64738083 69.31282997 C-66.78263193 49.42820362 -63.59517482 33.55043447 -49.36645508 18.61499023 C-48.63942383 17.88538086 -47.91239258 17.15577148 -47.16333008 16.40405273 C-46.62192383 15.83944336 -46.08051758 15.27483398 -45.52270508 14.69311523 C-33.18076276 2.91217029 -16.3415013 -0.05689027 0 0 Z M52.83666992 30.40405273 C51.57429261 32.92880735 51.73810588 34.71605739 51.77416992 37.52905273 C51.78319336 38.43913086 51.7922168 39.34920898 51.80151367 40.28686523 C51.81311523 40.98553711 51.8247168 41.68420898 51.83666992 42.40405273 C50.72291992 42.46592773 49.60916992 42.52780273 48.46166992 42.59155273 C39.12447621 43.81231658 31.5526773 49.0875633 25.83666992 56.40405273 C20.36852922 65.32718782 18.39670208 74.01935281 20.41479492 84.36889648 C23.29688977 94.54793146 29.69440654 102.30716919 38.92260742 107.50952148 C43.28542482 109.54847084 47.04100045 110.40405273 51.83666992 110.40405273 C51.83666992 118.98405273 51.83666992 127.56405273 51.83666992 136.40405273 C43.83666992 133.40405273 43.83666992 133.40405273 41.96166992 131.21655273 C41.01560052 128.85137923 40.4761175 126.81273841 39.96166992 124.34155273 C39.25855258 121.34196343 38.79500523 120.35503545 36.71166992 117.90405273 C32.96928303 115.95150305 29.97190073 115.40992654 25.83666992 116.40405273 C23.14561794 118.57979689 21.38134064 120.3147113 19.83666992 123.40405273 C19.06720979 132.63757429 21.95567583 140.36862083 27.87963867 147.42749023 C33.70001931 153.3059585 40.4726042 156.26551097 48.77416992 156.52905273 C49.78479492 156.48780273 50.79541992 156.44655273 51.83666992 156.40405273 C51.73354492 157.60030273 51.63041992 158.79655273 51.52416992 160.02905273 C51.52999935 163.31101813 51.96344621 165.2176871 53.96166992 167.84155273 C57.18256575 170.71235119 58.55119522 171.4915114 62.83666992 171.40405273 C66.90276848 169.8892317 69.90499929 168.37470904 71.83666992 164.40405273 C72.07159821 161.68410524 71.97369143 159.14448297 71.83666992 156.40405273 C72.90916992 156.36280273 73.98166992 156.32155273 75.08666992 156.27905273 C83.95024721 155.12977895 91.95662448 150.47847656 97.43823242 143.48608398 C103.27601043 134.79464354 105.22741887 126.21817604 103.37573242 115.81420898 C101.02534067 106.84124282 95.57396842 99.54198376 87.83666992 94.40405273 C82.16788433 91.5020671 78.3202732 90.40405273 71.83666992 90.40405273 C71.83666992 81.16405273 71.83666992 71.92405273 71.83666992 62.40405273 C80.10113273 64.76532782 80.10113273 64.76532782 81.83666992 67.40405273 C82.61010742 70.18139648 82.61010742 70.18139648 83.21166992 73.34155273 C84.10282718 77.14045509 84.58917448 79.10155831 87.08666992 82.15405273 C90.71468628 83.80315108 92.88796272 84.02753282 96.83666992 83.40405273 C99.80395281 81.60509599 102.2601742 79.55704417 103.83666992 76.40405273 C104.56027276 67.28665703 102.47856455 59.26834599 96.71166992 52.02905273 C92.10169184 47.16961697 84.64283939 42.63379315 77.79370117 42.30639648 C77.08600586 42.31799805 76.37831055 42.32959961 75.64916992 42.34155273 C74.39104492 42.36217773 73.13291992 42.38280273 71.83666992 42.40405273 C71.88307617 41.82397461 71.92948242 41.24389648 71.97729492 40.64624023 C72.23830083 34.99732663 71.6426115 31.88163107 67.83666992 27.40405273 C62.11794884 24.54469219 57.05896905 26.05380515 52.83666992 30.40405273 Z " fill="#E8E5E2" transform="translate(66.163330078125,6.595947265625)"/>
<path d="M0 0 C1.05701111 -0.00852997 2.11402222 -0.01705994 3.20306396 -0.02584839 C4.35744965 -0.02494202 5.51183533 -0.02403564 6.70120239 -0.02310181 C7.92109863 -0.02981903 9.14099487 -0.03653625 10.39785767 -0.04345703 C13.74096841 -0.0592013 17.08383072 -0.06581213 20.42696142 -0.0670886 C22.51689179 -0.06851114 24.60679621 -0.07278268 26.69672012 -0.07808304 C33.99152527 -0.09658136 41.28625738 -0.10475392 48.58108521 -0.10317993 C55.37490729 -0.10197863 62.16841163 -0.12307893 68.96215332 -0.15466726 C74.80008652 -0.1808416 80.63791603 -0.19154675 86.47590744 -0.19026911 C89.96041992 -0.1897598 93.44464996 -0.19542519 96.92910385 -0.21662521 C100.816804 -0.23963329 104.70407028 -0.23047954 108.59182739 -0.21841431 C110.31733322 -0.23527283 110.31733322 -0.23527283 112.07769775 -0.25247192 C118.28195077 -0.20349315 122.07373252 0.06877816 126.77590942 4.26742554 C129.28412214 7.32090188 128.89575834 10.32105037 128.65090942 14.16976929 C127.22031494 17.59936409 124.99647703 19.57657153 121.77590942 21.26742554 C117.66670452 22.01231318 113.60694725 21.95057173 109.43997192 21.91439819 C108.20027649 21.92315979 106.96058105 21.93192139 105.68331909 21.94094849 C102.29441031 21.9591504 98.90703339 21.95493441 95.51821136 21.93905306 C91.96558126 21.92635968 88.41301486 21.93814367 84.86038208 21.94598389 C78.89525657 21.95507054 72.93044097 21.94311874 66.96536255 21.91928101 C60.07708461 21.89207118 53.18954671 21.90088607 46.3012867 21.92841303 C40.37833909 21.95113152 34.45561376 21.95429095 28.53263664 21.94121969 C24.99895987 21.93344004 21.46563052 21.93234203 17.93197632 21.94890213 C13.99164248 21.96607951 10.05213195 21.94224631 6.11184692 21.91439819 C4.36300201 21.92957993 4.36300201 21.92957993 2.5788269 21.94506836 C-6.23477119 21.82964454 -6.23477119 21.82964454 -9.93600464 18.85369873 C-12.6799655 15.75214021 -13.24349363 14.25615956 -13.46237183 10.26351929 C-13.05170871 6.82337416 -11.46718437 4.81364012 -9.22409058 2.26742554 C-6.09743747 0.29420774 -3.66493442 0.01338552 0 0 Z " fill="#E7E6E2" transform="translate(70.22409057617188,227.73257446289063)"/>
<path d="M0 0 C0 8.91 0 17.82 0 27 C-7.04723738 25.82546044 -7.04723738 25.82546044 -10.01953125 21.8046875 C-11.76116788 18.5989659 -12.23832747 15.62397949 -12 12 C-10.43707876 6.79026255 -8.56277803 3.96580572 -4 1 C-1 0 -1 0 0 0 Z " fill="#E8E5E3" transform="translate(118,69)"/>
<path d="M0 0 C7 2 7 2 9.375 4.0625 C11.57395782 8.03753913 12.31860865 11.46176943 12 16 C10.70019483 20.19812848 8.64025186 22.60304385 4.875 24.9375 C2 26 2 26 0 26 C0 17.42 0 8.84 0 0 Z " fill="#E7E5E2" transform="translate(138,117)"/>
</svg>
