<?xml version="1.0" encoding="UTF-8"?>
<svg version="1.1" xmlns="http://www.w3.org/2000/svg" width="272" height="256">
<path d="M0 0 C0.90818985 -0.0071553 1.8163797 -0.01431061 2.75209045 -0.02168274 C3.7412294 -0.02437164 4.73036835 -0.02706055 5.7494812 -0.02983093 C7.32097176 -0.03968773 7.32097176 -0.03968773 8.92420959 -0.04974365 C12.39314853 -0.06946155 15.86204417 -0.08113693 19.33102417 -0.09111023 C20.51742367 -0.09518576 21.70382317 -0.09926128 22.92617416 -0.10346031 C29.20760677 -0.12431619 35.48901756 -0.13861914 41.77047729 -0.147995 C48.24668721 -0.1590488 54.72255255 -0.19343872 61.19864082 -0.23316669 C66.18821841 -0.25936005 71.17771429 -0.26768936 76.16735458 -0.27127647 C78.55386554 -0.27613659 80.94037299 -0.28773404 83.32681656 -0.30631447 C86.67501057 -0.33075928 90.02231833 -0.32973051 93.37057495 -0.32279968 C94.34756851 -0.33560974 95.32456207 -0.3484198 96.3311615 -0.36161804 C107.59660335 -0.27706024 116.55178163 4.18266831 124.44821167 12.14717102 C130.75747601 20.71160629 133.56013141 28.97485841 133.58865356 39.60314941 C133.59436371 40.88286621 133.60007385 42.16258301 133.60595703 43.4810791 C133.60720217 44.88694753 133.60832731 46.29281608 133.60934448 47.69868469 C133.61397725 49.18909324 133.61900253 50.67950061 133.62438965 52.16990662 C133.63747229 56.20941684 133.64395062 60.24891047 133.64840031 64.28843856 C133.651338 66.81628054 133.65544412 69.34411806 133.65990448 71.87195778 C133.67356912 79.79289992 133.68324058 87.71383177 133.68710637 95.63478488 C133.69158336 104.75611173 133.70911887 113.87728845 133.73810697 122.99856967 C133.75977567 130.06377534 133.76981343 137.12893893 133.77114749 144.19417745 C133.77219189 148.40702906 133.77802155 152.61973935 133.7959671 156.83255577 C133.81253761 160.79955375 133.81456014 164.76630554 133.80582809 168.73332596 C133.80506247 170.18163148 133.8093371 171.62995073 133.81928635 173.07822227 C133.90731655 186.70167244 132.03731883 198.78954667 122.59664917 209.18623352 C116.04478937 215.32044488 107.99386788 219.24464518 98.94111633 219.29434204 C97.59362053 219.305075 97.59362053 219.305075 96.21890259 219.31602478 C95.24068542 219.31871368 94.26246826 219.32140259 93.25460815 219.32417297 C92.21830765 219.33074417 91.18200714 219.33731537 90.11430359 219.34408569 C86.68263677 219.36380445 83.25101375 219.37547985 79.81930542 219.38545227 C78.64518663 219.3895278 77.47106785 219.39360332 76.26136971 219.39780235 C70.04362286 219.4186597 63.82589804 219.43296139 57.60812378 219.44233704 C51.20151267 219.45338449 44.7952505 219.48776662 38.38876247 219.52750874 C33.44975664 219.55372098 28.51083326 219.56203312 23.57176399 219.56561852 C21.21119907 219.57047462 18.85063759 219.58206055 16.49014091 219.60065651 C13.17567631 219.62513919 9.86210522 219.62406559 6.5475769 219.61714172 C5.10150558 219.63635681 5.10150558 219.63635681 3.6262207 219.65596008 C-6.53467697 219.57910813 -16.22931873 216.40540843 -23.55178833 209.14717102 C-30.53352023 200.4517413 -33.66242373 191.82771301 -33.69223022 180.65995789 C-33.69794037 179.37327209 -33.70365051 178.0865863 -33.70953369 176.76091003 C-33.71077884 175.34718332 -33.71190398 173.93345651 -33.71292114 172.51972961 C-33.71755391 171.0210915 -33.72257918 169.52245456 -33.72796631 168.02381897 C-33.74105012 163.96151505 -33.74752766 159.89922764 -33.75197697 155.83690596 C-33.75491482 153.29431534 -33.75902101 150.75172915 -33.76348114 148.20914078 C-33.77714688 140.24067627 -33.78681746 132.27222199 -33.79068303 124.30374658 C-33.79515851 115.13035961 -33.81268653 105.95712203 -33.84168363 96.78378046 C-33.8633622 89.67694593 -33.87339063 82.57015325 -33.87472415 75.46328604 C-33.87576797 71.22636956 -33.88158482 66.98959368 -33.89954376 62.75271225 C-33.91613116 58.76190913 -33.91812876 54.7713507 -33.90940475 50.78052521 C-33.90863999 49.32457698 -33.91290214 47.86861501 -33.92286301 46.41270065 C-34.01228935 32.51466675 -32.58609268 20.53079295 -22.66506958 10.17842102 C-16.15038335 4.13729744 -9.01698341 0.04895507 0 0 Z M42.07321167 69.39717102 C41.36293823 69.93712708 40.65266479 70.47708313 39.92086792 71.03340149 C25.14497531 82.42920954 11.51906858 94.9346003 5.44821167 113.14717102 C4.70985176 121.93649384 5.66270147 128.85831322 11.13571167 135.89717102 C16.35859884 141.46400442 21.25990404 143.3716465 28.88571167 143.64717102 C36.23294984 143.40027657 42.09801984 141.60316586 47.51071167 136.52217102 C49.65892058 134.39972434 49.65892058 134.39972434 49.44821167 132.14717102 C50.12883667 132.86904602 50.80946167 133.59092102 51.51071167 134.33467102 C57.21328242 140.03724177 62.31349217 143.26225357 70.51071167 143.58467102 C77.52977272 143.50650776 82.18922591 141.80811328 87.44821167 137.14717102 C93.06979968 130.50451906 94.89876944 124.82911513 94.78414917 116.20967102 C92.76346884 97.78858523 75.79725171 82.46963233 62.15914917 71.49092102 C60.98607151 70.56206494 59.81158873 69.63498067 58.63571167 68.70967102 C58.07214966 68.25986877 57.50858765 67.81006653 56.927948 67.34663391 C50.53068033 62.39170827 47.89362397 64.94313599 42.07321167 69.39717102 Z M44.38571167 147.02217102 C43.53396362 147.85554993 43.53396362 147.85554993 42.66500854 148.70576477 C41.2188875 150.1466777 39.82898585 151.64352252 38.44821167 153.14717102 C38.44821167 153.80717102 38.44821167 154.46717102 38.44821167 155.14717102 C46.69821167 155.14717102 54.94821167 155.14717102 63.44821167 155.14717102 C61.46821167 152.83717102 59.48821167 150.52717102 57.44821167 148.14717102 C54.13571167 144.20967102 54.13571167 144.20967102 52.64743042 142.43232727 C52.25168823 142.00822571 51.85594604 141.58412415 51.44821167 141.14717102 C48.99998651 141.14717102 46.14432618 145.26556635 44.38571167 147.02217102 Z " fill="#E8E5E2" transform="translate(46.551788330078125,-0.1471710205078125)"/>
<path d="M0 0 C7.67140114 1.06614896 7.67140114 1.06614896 11.41552734 2.13574219 C12.20680023 2.35977722 12.99807312 2.58381226 13.81332397 2.81463623 C15.06201767 3.17709442 15.06201767 3.17709442 16.3359375 3.546875 C17.65411972 3.92649384 17.65411972 3.92649384 18.99893188 4.31378174 C20.85029644 4.84918584 22.70090252 5.3872189 24.55078125 5.92773438 C27.35621258 6.74453008 30.16611246 7.5444206 32.9765625 8.34375 C34.78415476 8.86875784 36.59145643 9.3947674 38.3984375 9.921875 C39.2268515 10.15541687 40.0552655 10.38895874 40.90878296 10.62957764 C53.11716301 14.25184255 62.21833206 20.35417594 68.73828125 31.33984375 C76.60901544 47.93417806 70.04772116 64.53963285 64.97118759 80.88350677 C63.95671133 84.16589282 62.9661981 87.45549097 61.97387695 90.74462891 C60.69905019 94.9647825 59.42168519 99.18411209 58.1342926 103.40045166 C54.72606281 114.56397111 51.39005738 125.74781538 48.08203125 136.94140625 C47.58536005 138.62078305 47.08865603 140.30015014 46.59191895 141.97950745 C45.60783129 145.30695347 44.62395089 148.63446068 43.64019775 151.96200562 C41.53511964 159.0816521 39.42969801 166.2011797 37.31381798 173.31762505 C36.89324199 174.73369666 36.47355059 176.15003139 36.05488014 177.56666756 C33.91657525 184.80075734 31.71917503 192.01483613 29.3840332 199.18798828 C28.80006523 200.98805832 28.80006523 200.98805832 28.20429993 202.82449341 C24.74811865 211.93777673 17.10355665 219.31534261 8.3125 223.375 C-3.72122337 228.16393073 -14.27750218 225.45143213 -26.25 221.75 C-27.579042 221.34898195 -28.90846839 220.94923561 -30.23828125 220.55078125 C-32.21281707 219.95872363 -34.18647937 219.36447026 -36.15759277 218.7611084 C-39.44976873 217.75431097 -42.74620824 216.78435992 -46.06835938 215.88085938 C-47.34001953 215.53345703 -48.61167969 215.18605469 -49.921875 214.828125 C-51.0675293 214.52293945 -52.21318359 214.21775391 -53.39355469 213.90332031 C-56 213 -56 213 -57 211 C-56.11699219 210.90203125 -55.23398438 210.8040625 -54.32421875 210.703125 C-38.18631559 208.69238733 -24.26512858 203.10268461 -13 191 C-7.81378213 184.25586688 -4.44820089 177.12118251 -2 169 C-1.8232779 168.42940731 -1.64655581 167.85881462 -1.46447849 167.27093124 C-0.8442823 164.238664 -0.85824825 161.35067166 -0.84178162 158.25494385 C-0.83684364 157.57774001 -0.83190566 156.90053617 -0.82681805 156.202811 C-0.81146743 153.93501446 -0.80308906 151.66724617 -0.79467773 149.39941406 C-0.78509729 147.77322644 -0.77508711 146.1470413 -0.76467896 144.52085876 C-0.73764181 140.10596305 -0.71662579 135.69105667 -0.69667697 131.276124 C-0.67481009 126.66231401 -0.64742483 122.04853689 -0.62062073 117.43475342 C-0.57070335 108.69778548 -0.52576096 99.96079929 -0.48259836 91.22379565 C-0.43321784 81.27707481 -0.37830273 71.33038694 -0.32291877 61.38369799 C-0.20911338 40.92249605 -0.10227118 20.46126263 0 0 Z M42 37 C40.85720004 40.80756023 39.71796126 44.61616564 38.58203125 48.42578125 C38.19499198 49.72197318 37.80697591 51.01787386 37.41796875 52.31347656 C36.85941775 54.17436331 36.3046538 56.03638544 35.75 57.8984375 C35.24726563 59.57945557 35.24726563 59.57945557 34.734375 61.29443359 C33.91268235 63.85444997 33.91268235 63.85444997 34 66 C32.02 65.67 30.04 65.34 28 65 C27.67 63.35 27.34 61.7 27 60 C22.545 59.01 22.545 59.01 18 58 C16.9861463 62.22439042 16.65010976 64.30021952 18.625 68.25 C22.53019925 72.77180966 26.1349298 74.53126484 32.01171875 75.0625 C35.29373743 74.95933242 37.32069786 73.82679691 40 72 C43.30443035 68.40463094 44.81064705 65.28255788 46.140625 60.60546875 C46.66269531 58.80239258 46.66269531 58.80239258 47.1953125 56.96289062 C47.54335937 55.71701172 47.89140625 54.47113281 48.25 53.1875 C48.61351562 51.92228516 48.97703125 50.65707031 49.3515625 49.35351562 C50.2449203 46.23851802 51.12729676 43.12083507 52 40 C48.99382731 36.99382731 46.17618402 37.40414684 42 37 Z " fill="#E7E5E2" transform="translate(198,27)"/>
</svg>
