<?xml version="1.0" encoding="UTF-8"?>
<svg version="1.1" xmlns="http://www.w3.org/2000/svg" width="256" height="256">
<path d="M0 0 C0.68562012 0.18804199 1.37124023 0.37608398 2.07763672 0.56982422 C24.18274119 6.73766358 42.37191185 18.36376272 59 34 C59.59039062 34.5259375 60.18078125 35.051875 60.7890625 35.59375 C76.91854492 50.57658675 87.25811578 72.06450955 93 93 C93.50853516 94.76150391 93.50853516 94.76150391 94.02734375 96.55859375 C98.38835951 114.90701491 98.22270031 138.9092016 93 157 C92.81195801 157.68562012 92.62391602 158.37124023 92.43017578 159.07763672 C86.26233642 181.18274119 74.63623728 199.37191185 59 216 C58.4740625 216.59039062 57.948125 217.18078125 57.40625 217.7890625 C42.42341325 233.91854492 20.93549045 244.25811578 0 250 C-1.17433594 250.33902344 -2.34867188 250.67804688 -3.55859375 251.02734375 C-21.90701491 255.38835951 -45.9092016 255.22270031 -64 250 C-64.68562012 249.81195801 -65.37124023 249.62391602 -66.07763672 249.43017578 C-88.18274119 243.26233642 -106.37191185 231.63623728 -123 216 C-123.88558594 215.21109375 -123.88558594 215.21109375 -124.7890625 214.40625 C-140.91854492 199.42341325 -151.25811578 177.93549045 -157 157 C-157.33902344 155.82566406 -157.67804688 154.65132812 -158.02734375 153.44140625 C-162.38835951 135.09298509 -162.22270031 111.0907984 -157 93 C-156.71793701 91.97156982 -156.71793701 91.97156982 -156.43017578 90.92236328 C-150.26233642 68.81725881 -138.63623728 50.62808815 -123 34 C-122.4740625 33.40960938 -121.948125 32.81921875 -121.40625 32.2109375 C-106.42341325 16.08145508 -84.93549045 5.74188422 -64 0 C-62.82566406 -0.33902344 -61.65132813 -0.67804688 -60.44140625 -1.02734375 C-42.09298509 -5.38835951 -18.0907984 -5.22270031 0 0 Z " fill="#E7E5E2" transform="translate(160,3)"/>
<path d="M0 0 C2.875 2.4375 2.875 2.4375 5 5 C5.495 5.495 5.495 5.495 6 6 C6.92288973 12.5755893 6.92288973 12.5755893 4.91210938 15.67907715 C4.39455078 16.24066528 3.87699219 16.80225342 3.34375 17.38085938 C2.70373047 18.07663086 2.06371094 18.77240234 1.40429688 19.48925781 C-8.15658056 29.47342349 -17.8922831 39.28423985 -27.6328125 49.09277344 C-30.55372439 52.03608596 -33.46453037 54.98888059 -36.3671875 57.95019531 C-39.88708633 61.54104427 -43.42375908 65.11452571 -46.97314453 68.67622375 C-48.31876392 70.0322469 -49.65836052 71.39427466 -50.99169922 72.76237488 C-52.85343521 74.67017737 -54.73594578 76.55484478 -56.625 78.43554688 C-57.16858154 79.0027243 -57.71216309 79.56990173 -58.2722168 80.15426636 C-61.06721409 82.88990938 -62.7417109 83.96182334 -66.64978027 84.53945923 C-70.21301046 83.96570062 -71.45504875 83.42321598 -73.97851562 80.93310547 C-74.64858643 80.2911322 -75.31865723 79.64915894 -76.0090332 78.98773193 C-76.66605225 78.3317804 -77.32307129 77.67582886 -78 77 C-79.21879158 75.86269413 -80.43944721 74.72738204 -81.66210938 73.59423828 C-84.94164652 70.47306348 -88.18631054 67.31660708 -91.42089844 64.14892578 C-92.81255955 62.79419697 -94.21307825 61.4485109 -95.62207031 60.11181641 C-97.67629896 58.16101412 -99.69949683 56.18221914 -101.71875 54.1953125 C-102.34986694 53.60751007 -102.98098389 53.01970764 -103.63122559 52.41409302 C-106.89884839 49.13198586 -108.39488776 46.95672282 -108.50976562 42.23779297 C-108.31321933 38.09824909 -107.06168315 35.88158414 -104 33 C-100.73952371 31.36976186 -98.62198965 31.5326465 -95 32 C-93.22314453 33.23071289 -93.22314453 33.23071289 -91.3828125 34.91015625 C-90.68687988 35.54518066 -89.99094727 36.18020508 -89.27392578 36.83447266 C-85.11126085 40.79870262 -81.04423436 44.85288542 -77 48.9375 C-76.12988281 49.81212891 -75.25976562 50.68675781 -74.36328125 51.58789062 C-72.23986451 53.72297449 -70.11883622 55.86037205 -68 58 C-64.07362853 56.4104378 -61.44494346 53.70755761 -58.52880859 50.73999023 C-57.72808174 49.93729202 -57.72808174 49.93729202 -56.91117859 49.11837769 C-55.15228456 47.3530058 -53.40047285 45.58077035 -51.6484375 43.80859375 C-50.42634203 42.58022673 -49.20372922 41.35237421 -47.98062134 40.12501526 C-44.76481458 36.89591478 -41.55462483 33.66129231 -38.3460083 30.42504883 C-33.20425829 25.2401497 -28.05574674 20.06198578 -22.90401077 14.88701057 C-21.10348298 13.07623906 -19.30639449 11.26210458 -17.50961304 9.44761658 C-16.41065759 8.34183538 -15.31159331 7.23616232 -14.21240234 6.13061523 C-13.71158646 5.62306198 -13.21077057 5.11550873 -12.69477844 4.59257507 C-8.42588349 0.30960679 -6.16480927 -0.62692976 0 0 Z " fill="#0E0E0E" transform="translate(179,86)"/>
</svg>
