<?xml version="1.0" encoding="UTF-8"?>
<svg version="1.1" xmlns="http://www.w3.org/2000/svg" width="256" height="256">
<path d="M0 0 C8.99223301 5.09076417 16.6385053 13.24127389 23.1875 21.1328125 C25.1967141 23.40155009 27.33293382 25.47340263 29.51611328 27.57250977 C37.17759597 34.96543366 44.02667214 42.61962372 44.5 53.75 C44.48212528 61.68637556 42.04497704 68.62155764 39.47265625 76.0625 C35.61707252 87.24221842 36.38177868 97.25790418 41.31640625 107.97265625 C51.24092775 127.19972651 69.59503318 145.50902352 90.1171875 153 C102.25396962 156.50943097 114.26356567 152.89705759 125.6875 148.5 C133.03642965 146.00883741 141.15066434 145.96154402 148.25 149.1875 C156.93004731 154.17957891 163.72788366 161.84581086 170.69140625 168.91796875 C172.76644388 170.95882125 174.88710086 172.83070844 177.125 174.6875 C184.14573612 180.7093509 191.88446761 188.83057714 193.6015625 198.1875 C193.9318033 209.95608118 189.27825501 218.98282501 181.5625 227.625 C180.06699568 229.17102812 178.56726805 230.71298692 177.0625 232.25 C175.88728806 233.61770355 174.72007682 234.99233879 173.5625 236.375 C165.52345361 245.54656794 156.44918062 253.19447119 143.86669922 254.47314453 C104.21191941 256.3883137 70.29919306 230.49454267 42.0625 205.25 C41.16144531 204.44820312 40.26039062 203.64640625 39.33203125 202.8203125 C37.73668506 201.39068444 36.14591357 199.95592081 34.56152344 198.51416016 C33.0016445 197.1008818 31.43466561 195.69535388 29.85717773 194.30175781 C23.34430399 188.53252074 17.14910212 182.49091594 11.01147461 176.3293457 C9.37010204 174.68258596 7.72341181 173.04127905 6.07617188 171.40039062 C1.03400127 166.361304 -3.92529945 161.29191186 -8.55688477 155.86694336 C-10.33021117 153.79006612 -12.19879936 151.8082442 -14.0625 149.8125 C-20.50090767 142.67211943 -26.20011485 134.95489896 -31.9375 127.25 C-32.39833984 126.63576172 -32.85917969 126.02152344 -33.33398438 125.38867188 C-50.815172 102.00203073 -66.05256711 75.4046518 -62.9375 45.25 C-59.32299848 27.56330996 -43.57298909 13.99041796 -29.1953125 4.42578125 C-19.90016445 -1.26991036 -10.66100712 -4.68596555 0 0 Z " fill="#E7E5E2" transform="translate(62.9375,1.75)"/>
</svg>
