<?xml version="1.0" encoding="UTF-8"?>
<svg version="1.1" xmlns="http://www.w3.org/2000/svg" width="256" height="256">
<path d="M0 0 C4.9767017 4.07786774 8.390417 8.8765169 11.6796875 14.37109375 C12.49759766 13.30181641 12.49759766 13.30181641 13.33203125 12.2109375 C22.21144545 0.93332254 32.54530096 -7.64896224 47.05078125 -10.34765625 C64.59068145 -12.22413889 80.04632574 -9.25223734 94.47265625 1.44140625 C106.14696797 11.29657409 113.47172002 25.51080472 114.90258789 40.74414062 C116.14561188 67.01141206 105.22143383 88.52434954 87.9921875 107.74609375 C86.55546979 109.28848947 85.11802609 110.83020944 83.6796875 112.37109375 C82.50788923 113.72082235 81.34094666 115.07478705 80.1796875 116.43359375 C65.57574569 133.1623585 34.57805084 166.32683788 11.87109375 169.80078125 C7.57849139 169.22282989 4.77532653 167.182924 1.3671875 164.68359375 C0.67713623 164.19246094 -0.01291504 163.70132813 -0.72387695 163.1953125 C-2.93774325 161.60681666 -5.13139908 159.99377616 -7.3203125 158.37109375 C-8.0431543 157.83661621 -8.76599609 157.30213867 -9.51074219 156.75146484 C-23.45033417 146.38588669 -36.70707926 135.31393861 -49.3203125 123.37109375 C-49.81917969 122.9009082 -50.31804688 122.43072266 -50.83203125 121.94628906 C-66.20413211 107.35464834 -79.4055424 90.15801901 -87.3203125 70.37109375 C-87.660625 69.55125 -88.0009375 68.73140625 -88.3515625 67.88671875 C-93.61856621 52.57339316 -91.25223655 33.67132667 -84.6953125 19.24609375 C-76.87385698 4.47223332 -64.60123914 -4.10773973 -49.1171875 -9.37890625 C-32.41484907 -13.96886185 -13.95911185 -9.79957852 0 0 Z " fill="#E7E5E2" transform="translate(90.3203125,48.62890625)"/>
<path d="M0 0 C16.18105507 7.47692011 26.06523259 15.96279158 32.95703125 32.9453125 C37.99279779 47.69426168 38.43036872 65.64004738 32 80 C31.72091797 80.6295459 31.44183594 81.2590918 31.15429688 81.90771484 C27.05074513 91.01437612 22.24916671 99.17360575 16 107 C15.33613281 107.85464844 14.67226562 108.70929688 13.98828125 109.58984375 C4.68626786 121.29903251 -5.6157723 132.29972586 -17 142 C-17.97066406 142.84691406 -18.94132812 143.69382813 -19.94140625 144.56640625 C-28.30417774 151.81414154 -37.04321093 158.50554407 -46 165 C-46.71752441 165.52255371 -47.43504883 166.04510742 -48.17431641 166.58349609 C-50.31458265 168.13271848 -52.46689802 169.66324791 -54.625 171.1875 C-55.27573486 171.65736328 -55.92646973 172.12722656 -56.59692383 172.61132812 C-60.34667242 175.21798542 -63.29713806 176.84147656 -68 177 C-77.06366806 174.38753097 -85.61711204 165.69179744 -93 160 C-89.91553941 156.69895501 -86.52026891 154.16551806 -82.8125 151.625 C-69.3364806 142.1768948 -56.851562 131.40295534 -45 120 C-44.09121094 119.13205811 -44.09121094 119.13205811 -43.1640625 118.24658203 C-34.29140073 109.73380629 -26.20080283 100.97479229 -19 91 C-18.56848633 90.40751465 -18.13697266 89.8150293 -17.69238281 89.20458984 C-2.80864182 68.54382634 7.36929086 44.3883459 3.36328125 18.45703125 C2.65213384 14.2890658 1.82752768 10.14621381 1 6 C0.65834082 4.00140546 0.32167936 2.00190747 0 0 Z " fill="#E7E5E2" transform="translate(220,67)"/>
</svg>
