<?xml version="1.0" encoding="UTF-8"?>
<svg version="1.1" xmlns="http://www.w3.org/2000/svg" width="256" height="256">
<path d="M0 0 C-0.17789063 1.051875 -0.17789063 1.051875 -0.359375 2.125 C-1.14329441 7.89464684 -1.38738537 12.24234983 1.55078125 17.38671875 C3.27740791 19.30881258 4.71789406 19.85994079 7.125 20.75 C9.25 21.61328125 9.25 21.61328125 11 23 C11.83712444 26.04765615 12.13194697 29.00150582 12.47265625 32.140625 C13.01180278 35.06399728 13.41129312 36.20535816 15.5625 38.1875 C20.34403478 40.70867288 24.81545318 41.92736803 30.1328125 40.37890625 C32.26489693 39.51042651 32.26489693 39.51042651 35 38 C40.30942493 50.38865818 39.73904279 67.51754013 35 80 C27.78175662 97.49468334 15.25536207 109.91102625 -2.109375 117.328125 C-18.18574734 122.78947637 -36.89820955 121.76702607 -52.1640625 114.4921875 C-68.27527992 105.72279068 -78.96476856 92.41173328 -84.875 75.125 C-88.08906491 61.8838224 -87.42410258 46.50211184 -82 34 C-81.45666016 32.68708984 -81.45666016 32.68708984 -80.90234375 31.34765625 C-74.45113887 17.15500551 -62.40397223 5.47047101 -47.87109375 -0.2265625 C-33.21116022 -5.22712878 -14.35360611 -7.17680305 0 0 Z M-26 23 C-28.07277359 25.31193977 -29.00978527 27.02935582 -30 30 C-30.9075 30.433125 -31.815 30.86625 -32.75 31.3125 C-37.10971013 33.57619564 -39.77451499 36.54902998 -42 41 C-42.80980094 47.51823377 -41.92286213 51.73510608 -38 57 C-33.74688126 60.26072437 -29.92323658 61.81518053 -24.75 63.125 C-18.20396601 64.79603399 -18.20396601 64.79603399 -16 67 C-15.43548387 73.20967742 -15.43548387 73.20967742 -17.2109375 75.6953125 C-20.66784242 78.21628683 -24.92743847 77.60284628 -29 77 C-32.35720758 74.67577937 -34.03097243 71.54424963 -36 68 C-39.29075996 68.37904208 -39.29075996 68.37904208 -42 70 C-41.77978979 76.49620107 -40.65536784 79.45289653 -36 84 C-33.28509275 85.75670469 -32.28565953 86 -29 86 C-28.855625 86.969375 -28.71125 87.93875 -28.5625 88.9375 C-28.32437659 91.86486773 -28.32437659 91.86486773 -27 93 C-24.54207971 93.33343551 -24.54207971 93.33343551 -22 93 C-19.63019987 90.04622502 -19.63019987 90.04622502 -20 86 C-19.29875 85.938125 -18.5975 85.87625 -17.875 85.8125 C-13.36089588 84.53677492 -10.33184829 82.1374768 -7.8828125 78.20703125 C-5.78315472 73.55248016 -5.80642553 69.91625942 -7.22265625 65.0390625 C-8.72918452 61.08726472 -10.32621224 58.83538596 -14.16796875 56.91796875 C-19.06779467 54.88966872 -24.09314456 53.27322094 -29.1875 51.80859375 C-31 51 -31 51 -33 48 C-32.96856707 45.26009592 -32.44521663 42.71582146 -32 40 C-27.38 40 -22.76 40 -18 40 C-17.443125 41.299375 -16.88625 42.59875 -16.3125 43.9375 C-14.68445263 47.40170883 -14.68445263 47.40170883 -11.25 49 C-10.5075 49 -9.765 49 -9 49 C-7.15412336 46.92798943 -7.15412336 46.92798943 -6 44 C-7.50552132 38.7306754 -9.73662054 35.55281622 -14 32 C-14.886875 31.67 -15.77375 31.34 -16.6875 31 C-19 30 -19 30 -20.1875 27.5 C-20.455625 26.675 -20.72375 25.85 -21 25 C-21.66 24.34 -22.32 23.68 -23 23 C-23.99 23 -24.98 23 -26 23 Z " fill="#D0D0D0" transform="translate(190,132)"/>
<path d="M0 0 C1.12742615 -0.00281982 2.25485229 -0.00563965 3.41644287 -0.00854492 C4.66427551 -0.00652069 5.91210815 -0.00449646 7.19775391 -0.00241089 C8.50327209 -0.00416321 9.80879028 -0.00591553 11.15386963 -0.00772095 C14.7446815 -0.01229497 18.33546476 -0.01050585 21.92627716 -0.00734186 C25.67611267 -0.0048181 29.42594565 -0.00715584 33.17578125 -0.00872803 C39.47412559 -0.01054968 45.77245822 -0.00814354 52.07080078 -0.00338745 C59.36270524 0.00205516 66.65458174 0.0002925 73.94648552 -0.00521386 C80.19615354 -0.00974512 86.44581312 -0.01039547 92.69548225 -0.00777519 C96.43295882 -0.00621249 100.17042222 -0.00601846 103.90789795 -0.00931168 C108.07224191 -0.01272441 112.23653732 -0.00800044 116.40087891 -0.00241089 C117.64871155 -0.00443512 118.89654419 -0.00645935 120.18218994 -0.00854492 C121.87332916 -0.00431519 121.87332916 -0.00431519 123.59863281 0 C124.58457428 0.00037703 125.57051575 0.00075405 126.58633423 0.0011425 C128.79931641 0.12698364 128.79931641 0.12698364 129.79931641 1.12698364 C129.91351812 2.69473813 129.9589009 4.26757404 129.97631836 5.83938599 C129.99557121 7.34763443 129.99557121 7.34763443 130.01521301 8.88635254 C130.02259995 9.98412018 130.02998688 11.08188782 130.03759766 12.21292114 C130.0456694 13.33961212 130.05374115 14.4663031 130.0620575 15.62713623 C130.07592611 18.0230657 130.08663575 20.41901516 130.09448242 22.81497192 C130.11158105 26.45192135 130.15542937 30.08793475 130.19970703 33.72463989 C130.20984366 36.0540603 130.21835672 38.38348844 130.22509766 40.71292114 C130.24260574 41.79044647 130.26011383 42.8679718 130.27815247 43.97814941 C130.25483694 52.24276046 129.12057504 61.16510552 123.04931641 67.31448364 C122.30681641 67.91260864 121.56431641 68.51073364 120.79931641 69.12698364 C120.38681641 68.64229614 119.97431641 68.15760864 119.54931641 67.65823364 C117.65542538 65.45996727 115.73408071 63.28936728 113.79931641 61.12698364 C113.15091797 60.39866333 112.50251953 59.67034302 111.83447266 58.91995239 C107.71496843 54.52309541 103.94266286 50.99089174 97.79931641 50.12698364 C91.62121533 50.22351647 87.88066566 53.33510362 83.56103516 57.47073364 C81.79931641 59.12698364 81.79931641 59.12698364 78.79931641 61.12698364 C76.22536609 60.47314109 73.89634002 59.74268556 71.42431641 58.81448364 C63.34199152 55.88621945 56.60376722 54.94518661 48.04931641 54.93948364 C46.62232422 54.9211145 46.62232422 54.9211145 45.16650391 54.90237427 C39.79775896 54.8913426 34.95701951 55.30630429 29.76318359 56.69607544 C27.79931641 57.12698364 27.79931641 57.12698364 23.79931641 57.12698364 C24.14612653 54.00569254 24.35953209 52.52420819 26.73681641 50.37698364 C29.8253463 47.00767831 30.53817341 43.63895427 30.79931641 39.12698364 C30.12037021 32.45067934 26.86078785 28.45321394 21.79541016 24.30276489 C14.62829335 19.09796168 7.14415227 14.27355403 -0.48901367 9.77981567 C-1.21628662 9.34652954 -1.94355957 8.91324341 -2.69287109 8.46682739 C-3.35270996 8.0826062 -4.01254883 7.69838501 -4.69238281 7.30252075 C-6.20068359 6.12698364 -6.20068359 6.12698364 -6.76318359 3.37698364 C-5.73127543 -0.750649 -3.94438186 0.00150834 0 0 Z " fill="#CFCFCF" transform="translate(118.20068359375,64.87301635742188)"/>
<path d="M0 0 C1.53947296 -0.01268921 1.53947296 -0.01268921 3.11004639 -0.02563477 C4.23533752 -0.01956207 5.36062866 -0.01348938 6.52001953 -0.00723267 C8.29835175 -0.0151181 8.29835175 -0.0151181 10.11260986 -0.02316284 C13.36471968 -0.03411439 16.616464 -0.0315332 19.86856842 -0.02202559 C23.27045974 -0.01443501 26.67232648 -0.02147291 30.07421875 -0.02618408 C35.78731679 -0.03164341 41.50029852 -0.02444545 47.21337891 -0.01016235 C53.82031767 0.00616461 60.42697872 0.00087622 67.03391075 -0.01564157 C72.70448371 -0.02925147 78.37497301 -0.03117857 84.04555702 -0.02332556 C87.43322935 -0.01864627 90.8207711 -0.0180311 94.20843506 -0.02793503 C97.98436439 -0.03552735 101.75975544 -0.02397562 105.53564453 -0.00723267 C106.66093567 -0.01330536 107.78622681 -0.01937805 108.94561768 -0.02563477 C109.97193298 -0.01717529 110.99824829 -0.00871582 112.05566406 0 C112.94867218 0.00113108 113.8416803 0.00226215 114.76174927 0.00342751 C117.45830603 0.45266676 118.33984403 1.28566907 120.02783203 3.38095093 C118.55167822 7.24230241 116.640508 8.4518888 113.09033203 10.44345093 C102.75004136 16.81815892 95.64962896 25.13150417 89.68408203 35.53329468 C88.02783203 38.38095093 88.02783203 38.38095093 85.02783203 42.38095093 C85.02783203 31.82095093 85.02783203 21.26095093 85.02783203 10.38095093 C80.07783203 10.38095093 75.12783203 10.38095093 70.02783203 10.38095093 C70.02783203 25.23095093 70.02783203 40.08095093 70.02783203 55.38095093 C73.65783203 55.38095093 77.28783203 55.38095093 81.02783203 55.38095093 C82.68704603 58.69937893 81.60042731 61.77360069 81.02783203 65.38095093 C79.00674002 67.40204294 74.85707927 66.54856259 72.08325195 66.55795288 C71.25072403 66.56452408 70.41819611 66.57109528 69.56044006 66.5778656 C66.7930595 66.59764828 64.02573332 66.60927234 61.25830078 66.61923218 C59.84396476 66.62534547 59.84396476 66.62534547 58.40105629 66.63158226 C53.41035809 66.65246448 48.41968756 66.6667567 43.42895508 66.67611694 C38.2669651 66.68718437 33.10540585 66.72158194 27.94356823 66.76128864 C23.98105555 66.78740367 20.01864625 66.79580423 16.05605507 66.79939842 C14.15301925 66.80427785 12.24998845 66.8159302 10.34703636 66.83443642 C7.68454022 66.85871891 5.02316809 66.85788296 2.3605957 66.85092163 C1.57238434 66.86373169 0.78417297 66.87654175 -0.02792358 66.88973999 C-3.58613332 66.85578568 -5.59415701 66.66066709 -8.4929657 64.51564026 C-9.97216797 62.38095093 -9.97216797 62.38095093 -9.97216797 59.75595093 C-8.97216797 57.38095093 -8.97216797 57.38095093 -7.22216797 56.06845093 C-4.97216797 55.38095093 -4.97216797 55.38095093 0.02783203 55.38095093 C0.02783203 40.53095093 0.02783203 25.68095093 0.02783203 10.38095093 C-1.95216797 10.38095093 -3.93216797 10.38095093 -5.97216797 10.38095093 C-7.97216797 8.38095093 -7.97216797 8.38095093 -8.28466797 5.94345093 C-7.97216797 3.38095093 -7.97216797 3.38095093 -6.76339722 1.74460411 C-4.39399967 -0.05920549 -2.96272217 0.00375256 0 0 Z M27.02783203 10.38095093 C27.02783203 25.23095093 27.02783203 40.08095093 27.02783203 55.38095093 C31.97783203 55.38095093 36.92783203 55.38095093 42.02783203 55.38095093 C42.02783203 40.53095093 42.02783203 25.68095093 42.02783203 10.38095093 C37.07783203 10.38095093 32.12783203 10.38095093 27.02783203 10.38095093 Z " fill="#D0D0D0" transform="translate(13.97216796875,120.61904907226563)"/>
<path d="M0 0 C2.00939317 1.15772101 4.00250607 2.34405027 5.98046875 3.5546875 C7.04998779 4.18270264 8.11950684 4.81071777 9.22143555 5.45776367 C12.55246556 7.4235733 15.85998544 9.42539844 19.16796875 11.4296875 C21.27104754 12.67501609 23.37518745 13.91855473 25.48046875 15.16015625 C56.97939347 33.87639545 56.97939347 33.87639545 58.69921875 40.46484375 C58.61430113 45.97387442 58.61430113 45.97387442 56.48109531 48.15239239 C53.66340951 49.70830219 51.86912082 49.80446278 48.65794373 49.8039093 C47.53769806 49.81092361 46.41745239 49.81793793 45.26325989 49.82516479 C44.0387059 49.81752106 42.81415192 49.80987732 41.55249023 49.80200195 C40.25950012 49.80565262 38.96651001 49.80930328 37.63433838 49.81306458 C34.09099899 49.82246628 30.54793618 49.81305489 27.00461841 49.79973245 C23.29711031 49.78841409 19.58961575 49.79252569 15.88209534 49.79447937 C9.65710939 49.79536212 3.4322324 49.78428517 -2.79272461 49.76586914 C-9.99209714 49.74469249 -17.19131018 49.74119371 -24.39070755 49.7474311 C-31.31480871 49.75312306 -38.23885365 49.7474817 -45.1629467 49.73625755 C-48.1106565 49.73161027 -51.05833192 49.73073826 -54.00604439 49.7328434 C-58.11943058 49.73507443 -62.23259274 49.72062704 -66.34594727 49.7043457 C-67.57252548 49.70682312 -68.7991037 49.70930054 -70.06285095 49.71185303 C-71.18027679 49.70476822 -72.29770264 49.69768341 -73.44898987 49.69038391 C-74.42181695 49.68833104 -75.39464403 49.68627817 -76.39695072 49.68416309 C-78.83203125 49.4296875 -78.83203125 49.4296875 -81.83203125 47.4296875 C-82.84630505 44.29584153 -82.66428616 41.59531968 -81.83203125 38.4296875 C-72.2427195 25.00993442 -50.33672484 16.02207836 -36.42236328 7.95458984 C-34.02200368 6.54152235 -31.65671022 5.08490188 -29.296875 3.60546875 C-27.93367232 2.77591254 -26.57039632 1.9464768 -25.20703125 1.1171875 C-24.62945068 0.73804199 -24.05187012 0.35889648 -23.45678711 -0.03173828 C-15.94699308 -4.49874347 -7.61986823 -3.8632244 0 0 Z M-17.83203125 21.4296875 C-18.91771628 23.27236618 -18.91771628 23.27236618 -18.83203125 25.4296875 C-17.89399343 28.2155886 -17.89399343 28.2155886 -15.83203125 30.4296875 C-12.93496418 31.67645756 -12.93496418 31.67645756 -9.83203125 31.4296875 C-6.99987511 29.49189646 -6.00681655 28.30361399 -5.33203125 24.9296875 C-5.99358511 21.62191822 -7.15616428 20.43658773 -9.83203125 18.4296875 C-14.0809785 18.4296875 -14.90507894 18.60366458 -17.83203125 21.4296875 Z " fill="#CFCFCF" transform="translate(81.83203125,62.5703125)"/>
<path d="M0 0 C1.2936422 0.01078583 1.2936422 0.01078583 2.61341858 0.02178955 C3.52079269 0.0214975 4.42816681 0.02120544 5.36303711 0.02090454 C8.37156128 0.02230135 11.37983985 0.03787905 14.38832092 0.05352783 C16.47054407 0.05725671 18.55276898 0.06010427 20.63499451 0.06210327 C26.12266359 0.06974956 31.61022726 0.08940659 37.09785461 0.11151123 C42.69466221 0.13194824 48.29148679 0.14110039 53.88832092 0.15118408 C64.87534647 0.17265154 75.86229369 0.20679947 86.84925842 0.24884033 C87.34425842 5.19884033 87.34425842 5.19884033 87.84925842 10.24884033 C75.62773809 10.29510576 63.40623846 10.33067998 51.18464851 10.35246468 C45.51015768 10.36291828 39.83572659 10.37710616 34.16127014 10.39971924 C28.68888127 10.4213915 23.21655001 10.43339707 17.74412155 10.43859482 C15.65245023 10.4423007 13.56078219 10.44953697 11.46913528 10.46030045 C8.54775843 10.47474074 5.62662204 10.47682142 2.70521545 10.47589111 C1.83343658 10.48308167 0.96165771 10.49027222 0.0634613 10.49768066 C-5.92263725 10.47694465 -5.92263725 10.47694465 -8.15074158 8.24884033 C-8.40074158 5.24884033 -8.40074158 5.24884033 -8.15074158 2.24884033 C-5.50821049 -0.39369075 -3.59510734 0.01258699 0 0 Z " fill="#D0D0D0" transform="translate(8.150741577148438,195.75115966796875)"/>
<path d="M0 0 C7.59 0 15.18 0 23 0 C24.93880859 3.54095584 26.87609028 7.08273262 28.8125 10.625 C29.35970703 11.62402344 29.90691406 12.62304688 30.47070312 13.65234375 C31.52656305 15.58488737 32.57768816 17.52002715 33.62353516 19.45800781 C34.71277554 21.46956704 35.82666123 23.46777926 36.94921875 25.4609375 C38.13463839 28.32533439 37.87695381 29.1454529 37 32 C33.43860935 32.23303424 29.87917554 32.37461781 26.3125 32.5 C24.80139648 32.60054687 24.80139648 32.60054687 23.25976562 32.703125 C16.00670032 32.89462507 16.00670032 32.89462507 13.38378906 30.5637207 C12.03102868 28.44200296 11.02219993 26.29908786 10 24 C9.03276844 22.23833424 8.05573962 20.48202136 7.0703125 18.73046875 C6.08515813 16.88461435 5.10342495 15.03693024 4.125 13.1875 C3.61453125 12.24712891 3.1040625 11.30675781 2.578125 10.33789062 C2.10117188 9.43619141 1.62421875 8.53449219 1.1328125 7.60546875 C0.69855957 6.79231201 0.26430664 5.97915527 -0.18310547 5.14135742 C-1 3 -1 3 0 0 Z " fill="#CFCFCF" transform="translate(174,24)"/>
<path d="M0 0 C10.58578197 -0.73711441 19.84376447 1.37828432 28.21484375 8.16796875 C33.23130203 13.31615022 36.75225159 19.92942565 38 27 C37.505 29.475 37.505 29.475 37 32 C29.41 32 21.82 32 14 32 C11.835993 27.92942382 9.67853922 23.85660033 7.53637695 19.7746582 C6.80561537 18.38668203 6.0712534 17.00059531 5.33325195 15.61645508 C4.27386476 13.62805584 3.22755574 11.63325027 2.18359375 9.63671875 C1.85032578 9.01786301 1.5170578 8.39900726 1.1736908 7.76139832 C0.37172908 6.21193381 -0.32334809 4.60814335 -1 3 C-0.67 2.01 -0.34 1.02 0 0 Z " fill="#CFCFCF" transform="translate(210,24)"/>
<path d="M0 0 C7.26 0 14.52 0 22 0 C25.35270496 5.99016619 28.69154066 11.9855803 32 18 C32.598125 19.0828125 33.19625 20.165625 33.8125 21.28125 C34.493125 22.56515625 34.493125 22.56515625 35.1875 23.875 C35.57292969 24.59429687 35.95835937 25.31359375 36.35546875 26.0546875 C37.14277271 28.43091401 36.67933686 29.63813022 36 32 C32.43860935 32.23303424 28.87917554 32.37461781 25.3125 32.5 C23.80139648 32.60054687 23.80139648 32.60054687 22.25976562 32.703125 C14.99084088 32.89504381 14.99084088 32.89504381 12.36621094 30.52416992 C11.02647475 28.4127901 10.01598893 26.284152 9 24 C8.10705505 22.40671578 7.20309502 20.81956233 6.2890625 19.23828125 C5.39776228 17.59813203 4.509762 15.95618542 3.625 14.3125 C2.93083984 13.07016602 2.93083984 13.07016602 2.22265625 11.80273438 C1.79082031 10.99771484 1.35898438 10.19269531 0.9140625 9.36328125 C0.5217041 8.64438721 0.1293457 7.92549316 -0.27490234 7.18481445 C-1 5 -1 5 0 0 Z " fill="#CFCFCF" transform="translate(139,24)"/>
<path d="M0 0 C4.57797911 1.26371298 7.13453617 4.09089009 10.375 7.453125 C11.01566406 8.07058594 11.65632813 8.68804687 12.31640625 9.32421875 C15.2602782 12.30575217 16.85762173 13.94703049 17.5390625 18.1640625 C17 20.828125 17 20.828125 15 22.828125 C12.625 23.203125 12.625 23.203125 10 22.828125 C8.62266698 21.54029376 7.28328034 20.20969915 6 18.828125 C5.9906543 19.41827393 5.98130859 20.00842285 5.97167969 20.61645508 C5.91797343 23.29202705 5.83433148 25.96585053 5.75 28.640625 C5.72873047 30.0337793 5.72873047 30.0337793 5.70703125 31.45507812 C5.67480469 32.34775391 5.64257812 33.24042969 5.609375 34.16015625 C5.5779541 35.39342651 5.5779541 35.39342651 5.54589844 36.65161133 C5 38.828125 5 38.828125 3.12988281 40.66674805 C1 41.828125 1 41.828125 -1.6875 41.078125 C-4 39.828125 -4 39.828125 -5 38.828125 C-5.15655027 37.34173508 -5.25066943 35.84863373 -5.31640625 34.35546875 C-5.35830078 33.45634766 -5.40019531 32.55722656 -5.44335938 31.63085938 C-5.48267578 30.68533203 -5.52199219 29.73980469 -5.5625 28.765625 C-5.60568359 27.81623047 -5.64886719 26.86683594 -5.69335938 25.88867188 C-5.79979276 23.53531147 -5.90181008 21.18184146 -6 18.828125 C-6.89138672 19.82392578 -6.89138672 19.82392578 -7.80078125 20.83984375 C-8.52652344 21.49597656 -9.25226563 22.15210938 -10 22.828125 C-15.3125 22.515625 -15.3125 22.515625 -17 20.828125 C-17.56674063 17.7342786 -17.57621634 15.68022395 -15.78027344 13.02441406 C-14.05478265 11.07381436 -12.25002157 9.26023834 -10.375 7.453125 C-9.75753906 6.81246094 -9.14007813 6.17179688 -8.50390625 5.51171875 C-5.7364406 2.77921056 -3.78725765 1.04544091 0 0 Z " fill="#CFCFCF" transform="translate(215,123.171875)"/>
<path d="M0 0 C1.87742101 3.38346928 3.72266434 6.78346788 5.5625 10.1875 C6.09552734 11.14720703 6.62855469 12.10691406 7.17773438 13.09570312 C7.67724609 14.02705078 8.17675781 14.95839844 8.69140625 15.91796875 C9.39052124 17.19837036 9.39052124 17.19837036 10.10375977 18.50463867 C11 21 11 21 10 26 C1.42 26 -7.16 26 -16 26 C-17.41163068 18.94184658 -15.26007175 13.64907418 -11.5 7.578125 C-5.9685219 0 -5.9685219 0 0 0 Z " fill="#CFCFCF" transform="translate(129,30)"/>
</svg>
