<?xml version="1.0" encoding="UTF-8"?>
<svg version="1.1" xmlns="http://www.w3.org/2000/svg" width="256" height="256">
<path d="M0 0 C0.78151751 -0.00297112 1.56303502 -0.00594224 2.36823487 -0.0090034 C5.00138032 -0.01771301 7.63448043 -0.01920056 10.26763916 -0.02069092 C12.14980161 -0.02531754 14.03196312 -0.03034199 15.91412354 -0.03573608 C21.03821113 -0.04887822 26.16228562 -0.05530872 31.28638744 -0.05974674 C34.4862174 -0.06267491 37.68604374 -0.06677925 40.88587189 -0.07125092 C50.89290531 -0.08493141 60.89993052 -0.09459503 70.90697265 -0.09845281 C82.46664777 -0.10293329 94.02620464 -0.12047844 105.5858438 -0.1494534 C114.51499352 -0.17105936 123.44410995 -0.18115653 132.37328553 -0.18249393 C137.70888195 -0.18354285 143.04436728 -0.18946908 148.37993622 -0.20731354 C153.39990555 -0.22377514 158.41968007 -0.22595899 163.43966675 -0.21717453 C165.28191906 -0.2164031 167.12418175 -0.22076084 168.96640778 -0.23063278 C171.48239504 -0.24332404 173.99768948 -0.23749098 176.51367188 -0.22705078 C177.60600305 -0.23913539 177.60600305 -0.23913539 178.72040153 -0.25146413 C183.38329385 -0.20624469 186.54922633 0.68805783 190.51080322 3.14044189 C194.10592782 7.12422861 195.63158212 9.50582205 195.65797424 14.8203125 C195.6687072 16.30073532 195.6687072 16.30073532 195.67965698 17.81106567 C195.68234589 18.897836 195.68503479 19.98460632 195.68780518 21.10430908 C195.69437637 22.2458847 195.70094757 23.38746033 195.7077179 24.56362915 C195.7274859 28.354859 195.73912129 32.14604919 195.74908447 35.93731689 C195.75316 37.2298362 195.75723553 38.5223555 195.76143456 39.85404205 C195.78015583 45.98897103 195.79471809 52.12388005 195.80304652 58.25883174 C195.81281442 65.33711631 195.83912088 72.41508778 195.87954742 79.49326205 C195.91337025 85.6260487 195.92519358 91.75870393 195.92925072 97.89157867 C195.93412809 100.49909844 195.94577457 103.10661458 195.96428871 105.71407318 C195.98858475 109.36263559 195.98773199 113.01037837 195.98077393 116.65899658 C195.99998901 118.27700668 195.99998901 118.27700668 196.01959229 119.92770386 C195.97732981 126.00326466 195.56417834 129.51625678 191.51080322 134.14044189 C186.78495579 138.52049561 182.84951357 138.51042041 176.70611572 138.28106689 C175.9816626 138.23466064 175.25720947 138.18825439 174.51080322 138.14044189 C174.54560791 138.79270752 174.5804126 139.44497314 174.61627197 140.11700439 C174.78533928 145.57546308 174.7201295 149.49245212 171.51080322 154.14044189 C167.1174707 158.10515661 164.74231709 159.27104089 158.88580322 159.20294189 C157.8829126 159.19391846 156.88002197 159.18489502 155.84674072 159.17559814 C154.69045166 159.1581958 154.69045166 159.1581958 153.51080322 159.14044189 C153.55720947 159.84169189 153.60361572 160.54294189 153.65142822 161.26544189 C153.90120436 167.83098595 153.46615645 172.7479346 149.51080322 178.14044189 C144.63151137 182.6712129 141.46307534 183.29075704 134.99710083 183.30107117 C134.2129109 183.30615899 133.42872097 183.31124681 132.62076771 183.3164888 C129.97848319 183.33225419 127.33622609 183.34074915 124.69390869 183.34918213 C122.80513839 183.35871741 120.91636986 183.36860843 119.02760315 183.37882996 C112.81108686 183.4102567 106.59455703 183.43048837 100.37799072 183.44903564 C98.79223165 183.45398163 98.79223165 183.45398163 97.17443705 183.45902753 C87.20590769 183.48981338 77.23737537 183.51652465 67.26881218 183.53344631 C54.51321819 183.55535148 41.75804526 183.59731218 29.00261962 183.66688389 C20.0369257 183.71412584 11.07134535 183.73838028 2.10553086 183.7456432 C-3.2504072 183.75059976 -8.60587107 183.765681 -13.96167374 183.8053875 C-19.00314198 183.84226968 -24.04386556 183.8506582 -29.0854435 183.83738136 C-30.93333096 183.83743529 -32.78125155 183.847722 -34.62901497 183.869133 C-51.471253 184.05381832 -51.471253 184.05381832 -57.19755363 178.81906223 C-59.88832459 175.3221344 -60.73924029 172.67299938 -60.75662231 168.26475525 C-60.76515228 167.28491669 -60.77368225 166.30507812 -60.7824707 165.29554749 C-60.78156433 164.2268895 -60.78065796 163.15823151 -60.77972412 162.05718994 C-60.78644135 160.92668213 -60.79315857 159.79617432 -60.80007935 158.63140869 C-60.81910148 154.88828148 -60.82298579 151.1453332 -60.82513428 147.40216064 C-60.83155958 144.80147731 -60.83828774 142.20079471 -60.8453064 139.60011292 C-60.85728996 134.14519264 -60.86107174 128.69034343 -60.85980225 123.2354126 C-60.85860164 116.94033643 -60.87968833 110.64560358 -60.91128957 104.35061425 C-60.94064853 98.28508504 -60.94777684 92.21971986 -60.94658279 86.15412331 C-60.94894252 83.57813936 -60.95778683 81.00215285 -60.97324753 78.42621422 C-60.99285753 74.82114629 -60.98708787 71.21695977 -60.97503662 67.61187744 C-60.98627563 66.54929214 -60.99751465 65.48670685 -61.00909424 64.391922 C-60.95559896 58.08969037 -60.26194977 54.25578994 -56.48919678 49.14044189 C-50.92307573 44.79886748 -46.40444538 44.63953858 -39.48919678 45.14044189 C-39.53560303 44.28321533 -39.58200928 43.42598877 -39.62982178 42.54278564 C-40.00728416 30.58531644 -40.00728416 30.58531644 -35.48919678 25.14044189 C-29.92307573 20.79886748 -25.40444538 20.63953858 -18.48919678 21.14044189 C-18.54140381 20.27032471 -18.54140381 20.27032471 -18.59466553 19.38262939 C-18.77555144 14.16277871 -18.52487701 10.59277291 -15.48919678 6.14044189 C-10.4234408 1.15573801 -6.94987921 -0.0081693 0 0 Z M-6.48919678 15.14044189 C-6.90728879 18.30892216 -6.90728879 18.30892216 -6.48919678 21.14044189 C-1.06344428 21.36382603 4.35960578 21.52663548 9.78887939 21.63482666 C11.63310384 21.67994184 13.47700891 21.74125561 15.32012939 21.81939697 C25.84411815 22.6708658 25.84411815 22.6708658 35.31890869 19.13214111 C38.3030231 15.53085345 38.3030231 15.53085345 39.51080322 11.14044189 C33.76337694 11.04142057 28.0164493 10.96890108 22.26837158 10.92071533 C20.31385649 10.90062415 18.35940132 10.873346 16.40509033 10.83868408 C13.59252114 10.79005588 10.78074796 10.76744829 7.96783447 10.74981689 C7.09681595 10.72917175 6.22579742 10.70852661 5.3283844 10.68725586 C0.23617928 10.68538075 -3.07123288 10.93169955 -6.48919678 15.14044189 Z M118.39112854 18.10617065 C117.4446108 19.92397032 117.4446108 19.92397032 117.51080322 21.14044189 C118.07155045 21.14408752 118.63229767 21.14773315 119.21003723 21.15148926 C125.06697455 21.1934264 130.9231364 21.26284986 136.77960205 21.34796143 C138.96279123 21.37611908 141.14608137 21.39735941 143.32940674 21.41143799 C146.47503145 21.43293918 149.61944896 21.47962773 152.76470947 21.53106689 C153.73477432 21.53229553 154.70483917 21.53352417 155.70429993 21.53479004 C161.79650277 21.66530558 165.63720544 22.36402499 170.51080322 26.14044189 C173.8361512 31.26103678 173.9529443 35.64271368 173.94317627 41.54229736 C173.95846375 42.93349541 173.95846375 42.93349541 173.97406006 44.35279846 C174.00414437 47.40447059 174.01344913 50.45582857 174.02252197 53.50762939 C174.03937202 55.62898803 174.0575227 57.7503367 174.07691956 59.87167358 C174.12439015 65.44469082 174.15421868 71.01766765 174.18035889 76.59082031 C174.21017912 82.28192117 174.25670448 87.97288286 174.30181885 93.66387939 C174.3878186 104.82266072 174.45517882 115.98147071 174.51080322 127.14044189 C179.3645491 126.94578012 179.3645491 126.94578012 183.21704197 124.37066555 C184.6558129 121.89046995 184.88944759 120.54829997 184.89848328 117.7068634 C184.90838791 116.82510437 184.91829254 115.94334534 184.92849731 115.03486633 C184.92399567 114.07527512 184.91949402 113.1156839 184.91485596 112.12701416 C184.92515083 110.60199783 184.92515083 110.60199783 184.93565369 109.0461731 C184.95396623 105.68292301 184.9500777 102.32013742 184.94439697 98.95684814 C184.94895665 96.62041573 184.95426158 94.28398465 184.96028137 91.94755554 C184.96922127 87.04914911 184.96677928 82.15090563 184.95684814 77.25250244 C184.9453581 70.9730396 184.9655666 64.69413905 184.99476528 58.4147501 C185.01310528 53.58919192 185.01283916 48.76376902 185.00712776 43.93818474 C185.00697428 41.62291615 185.01304109 39.30763854 185.02541924 36.99240303 C185.04028518 33.75566389 185.02968361 30.51997042 185.01251221 27.28326416 C185.02218018 26.32569717 185.03184814 25.36813019 185.04180908 24.38154602 C184.99473828 20.14753618 184.88427002 17.76254865 182.66694641 14.0690155 C179.36949153 11.11958966 176.56792609 10.99769968 172.30841064 10.88409424 C171.24688278 10.85512054 170.18535492 10.82614685 169.09165955 10.79629517 C164.24221533 10.69873694 159.39290786 10.62480899 154.54278564 10.57061768 C151.98484728 10.5339063 149.42710177 10.4792863 146.86993408 10.40655518 C143.18051802 10.30321819 139.49441134 10.25870919 135.80377197 10.22637939 C134.66296677 10.18306488 133.52216156 10.13975037 132.3467865 10.09512329 C124.87206889 10.11290593 122.0216896 11.46733907 118.39112854 18.10617065 Z M-26.48919678 35.14044189 C-28.4728178 38.56669639 -28.55414067 41.25679722 -28.48919678 45.14044189 C-22.69130979 45.43910468 -16.89797148 45.65570207 -11.09417725 45.79962158 C-9.12463348 45.859647 -7.15561736 45.94130595 -5.18792725 46.04571533 C6.7101949 47.11939453 6.7101949 47.11939453 17.09381104 42.45098877 C21.50453488 37.82058885 21.50453488 37.82058885 23.51080322 32.14044189 C17.35441714 32.06612623 11.19829387 32.01176106 5.04156494 31.97564697 C2.94841969 31.96058721 0.85530586 31.94013518 -1.23773193 31.91412354 C-4.25132005 31.87761689 -7.2644899 31.86068717 -10.27825928 31.84747314 C-11.20973785 31.83198929 -12.14121643 31.81650543 -13.10092163 31.80055237 C-18.31075899 31.79921158 -22.01047266 32.15775279 -26.48919678 35.14044189 Z M100.64459229 41.44854736 C99.44610962 43.80722044 99.44610962 43.80722044 99.51080322 45.14044189 C101.37212891 45.16231567 101.37212891 45.16231567 103.27105713 45.18463135 C107.88950943 45.24274912 112.50748106 45.31998136 117.12554932 45.40289307 C119.12156351 45.43607903 121.11767012 45.46413057 123.11383057 45.48687744 C125.98874162 45.52053983 128.86281065 45.57286166 131.73736572 45.62872314 C132.62509674 45.63511307 133.51282776 45.64150299 134.42745972 45.64808655 C139.50531985 45.76768409 143.13633647 46.28215908 147.51080322 49.14044189 C152.04351682 55.02071899 152.66608462 59.51951458 152.71612549 66.74273682 C152.72602509 67.62099625 152.73592468 68.49925568 152.74612427 69.40412903 C152.77773441 72.30969539 152.80249483 75.21527811 152.82720947 78.12091064 C152.84777941 80.13444954 152.8687759 82.14798411 152.8901825 84.16151428 C152.94539899 89.46331286 152.99481017 94.76515038 153.04302979 100.0670166 C153.09324786 105.47629262 153.14893233 110.88551202 153.2041626 116.29473877 C153.31173902 126.90992479 153.41318519 137.52515995 153.51080322 148.14044189 C157.69546222 147.67127737 157.69546222 147.67127737 161.32330322 145.76544189 C163.38904146 142.9386422 163.63755007 140.36611839 163.65124512 136.98570251 C163.65695526 136.14041992 163.66266541 135.29513733 163.66854858 134.42424011 C163.66966644 133.50002762 163.6707843 132.57581512 163.67193604 131.62359619 C163.67690094 130.64768524 163.68186584 129.67177429 163.6869812 128.66629028 C163.70160605 125.4324066 163.70840545 122.19857198 163.71392822 118.96466064 C163.71967949 116.71887714 163.72543723 114.47309365 163.73120117 112.22731018 C163.74171213 107.51549043 163.74755416 102.80368774 163.7510376 98.09185791 C163.75652194 92.05583579 163.78054845 86.0200393 163.80900955 79.98408794 C163.82763831 75.34380943 163.83284167 70.70358523 163.83437347 66.06327248 C163.83740008 63.83814066 163.84542883 61.6130098 163.85855865 59.38791466 C163.87562346 56.27359252 163.87373763 53.15982119 163.86724854 50.04547119 C163.87646332 49.12733139 163.8856781 48.20919159 163.89517212 47.26322937 C163.86177305 42.14320698 163.39099753 38.56334315 160.51080322 34.14044189 C154.00867426 29.86863993 143.03078831 31.44147237 135.54742432 31.3303833 C133.36286186 31.28721783 131.17864573 31.21899667 128.9956665 31.12530518 C111.87105736 30.11120564 111.87105736 30.11120564 100.64459229 41.44854736 Z M-20.48919678 59.14044189 C-21.96583485 64.13250868 -21.96583485 64.13250868 -23.41986084 69.13116455 C-25.31939083 75.37678111 -28.20718237 80.35956939 -33.11419678 84.76544189 C-33.7045874 85.31458252 -34.29497803 85.86372314 -34.90325928 86.42950439 C-38.74542654 88.97160297 -43.21169807 90.42944241 -47.48919678 92.14044189 C-47.48919678 106.33044189 -47.48919678 120.52044189 -47.48919678 135.14044189 C-40.55919678 138.60544189 -40.55919678 138.60544189 -33.48919678 142.14044189 C-25.84897175 148.97643271 -23.24436639 158.49734826 -20.48919678 168.14044189 C-12.56919678 168.14044189 -4.64919678 168.14044189 3.51080322 168.14044189 C3.51080322 132.17044189 3.51080322 96.20044189 3.51080322 59.14044189 C-4.40919678 59.14044189 -12.32919678 59.14044189 -20.48919678 59.14044189 Z M89.51080322 59.14044189 C89.51080322 95.11044189 89.51080322 131.08044189 89.51080322 168.14044189 C97.43080322 168.14044189 105.35080322 168.14044189 113.51080322 168.14044189 C113.90267822 166.34606689 114.29455322 164.55169189 114.69830322 162.70294189 C117.48523061 151.60756899 122.58896454 144.0935451 132.51080322 138.14044189 C134.82080322 137.15044189 137.13080322 136.16044189 139.51080322 135.14044189 C139.51080322 120.95044189 139.51080322 106.76044189 139.51080322 92.14044189 C136.21080322 90.82044189 132.91080322 89.50044189 129.51080322 88.14044189 C118.95985168 80.69271139 116.0004666 71.58875876 113.51080322 59.14044189 C105.59080322 59.14044189 97.67080322 59.14044189 89.51080322 59.14044189 Z M40.51080322 66.14044189 C39.69495755 69.19952602 39.69495755 69.19952602 39.51080322 72.14044189 C38.88174072 72.15462158 38.25267822 72.16880127 37.60455322 72.18341064 C29.97989801 72.60827848 24.94412638 74.41539846 19.71783447 80.08575439 C15.4563041 85.73405355 14.06423451 91.09683536 14.51080322 98.14044189 C15.55628208 103.58704947 17.42902722 108.27930243 21.51080322 112.14044189 C28.62172777 116.11092202 36.21474921 118.65605657 43.88580322 121.32794189 C46.41515494 122.21527267 48.94345641 123.10553808 51.47174072 123.99591064 C52.583396 124.38416016 53.69505127 124.77240967 54.84039307 125.17242432 C57.51080322 126.14044189 57.51080322 126.14044189 59.51080322 127.14044189 C60.46147621 130.42458494 60.6118252 131.83737598 59.51080322 135.14044189 C55.76372009 137.01398346 51.25932969 136.36844975 47.13580322 136.39044189 C46.17674072 136.41106689 45.21767822 136.43169189 44.22955322 136.45294189 C43.30400635 136.45809814 42.37845947 136.46325439 41.42486572 136.46856689 C40.57875732 136.4779126 39.73264893 136.4872583 38.86090088 136.49688721 C35.99023337 136.06148574 34.62908769 135.0909916 32.51080322 133.14044189 C31.82330322 131.23809814 31.82330322 131.23809814 31.51080322 129.20294189 C30.69701922 125.42614948 29.8861533 123.32985816 26.51080322 121.14044189 C23.05375826 120.30698375 23.05375826 120.30698375 19.51080322 121.14044189 C16.35040417 123.70826612 14.71588143 125.18680213 14.28814697 129.26153564 C14.83564006 136.96649932 17.7794542 142.83860618 23.44830322 148.01544189 C28.84049331 152.38291689 32.5113265 153.41493118 39.51080322 153.14044189 C39.41799072 154.28512939 39.41799072 154.28512939 39.32330322 155.45294189 C39.30810302 158.10239786 39.30810302 158.10239786 40.57330322 159.95294189 C43.6470954 161.83687904 45.9946598 161.57224898 49.51080322 161.14044189 C52.03391334 159.53495042 52.03391334 159.53495042 53.51080322 157.14044189 C53.51080322 155.82044189 53.51080322 154.50044189 53.51080322 153.14044189 C54.66580322 153.22294189 55.82080322 153.30544189 57.01080322 153.39044189 C61.92659972 153.35570128 65.56089956 152.07022581 69.51080322 149.14044189 C75.3583257 142.9436205 77.98940431 137.22015951 77.74908447 128.69512939 C77.086707 121.59357417 74.49825889 117.47625055 69.10113525 112.8994751 C64.02371779 109.45152102 58.2359552 107.74308468 52.44830322 105.82794189 C50.58721924 105.18502197 50.58721924 105.18502197 48.6885376 104.52911377 C42.99849369 102.57763269 37.30177035 100.76319297 31.51080322 99.14044189 C32.38580322 91.26544189 32.38580322 91.26544189 33.51080322 90.14044189 C37.46051392 89.80471224 41.4236568 89.81548048 45.38580322 89.76544189 C46.50084229 89.72805908 47.61588135 89.69067627 48.76470947 89.65216064 C49.83334229 89.64055908 50.9019751 89.62895752 52.00299072 89.61700439 C53.47808105 89.58727539 53.47808105 89.58727539 54.98297119 89.5569458 C57.51080322 90.14044189 57.51080322 90.14044189 59.300354 92.44659424 C60.51080322 95.14044189 60.51080322 95.14044189 61.38580322 98.76544189 C62.22630595 102.22250842 62.22630595 102.22250842 64.76080322 104.14044189 C68.22347033 105.39959357 70.01016165 105.25766793 73.51080322 104.14044189 C76.05082335 102.76760767 76.05082335 102.76760767 77.51080322 100.14044189 C78.86372572 93.94481551 77.05123525 88.85262792 74.05767822 83.43731689 C69.84045554 77.17538018 64.64345655 74.24515927 57.51080322 72.14044189 C56.19080322 72.14044189 54.87080322 72.14044189 53.51080322 72.14044189 C53.42830322 71.37731689 53.34580322 70.61419189 53.26080322 69.82794189 C52.72479648 67.05778143 52.72479648 67.05778143 50.69830322 65.32794189 C47.03912168 63.34152906 43.75041068 63.68280865 40.51080322 66.14044189 Z " fill="#E8E5E2" transform="translate(60.48919677734375,36.85955810546875)"/>
</svg>
