<?xml version="1.0" encoding="UTF-8"?>
<svg version="1.1" xmlns="http://www.w3.org/2000/svg" width="256" height="256">
<path d="M0 0 C3.64400595 1.40291257 7.04800464 3.18223816 10.5 5 C26.00187057 12.7874014 42.29497795 18.16377909 59.171875 22.11328125 C62.06245406 23.01958159 63.80769622 23.92550694 66 26 C67.32958813 29.98876439 67.18262127 33.83565784 67.203125 37.99609375 C67.20882507 38.89884537 67.21452515 39.80159698 67.22039795 40.73170471 C67.2298577 42.65421376 67.23638579 44.5767391 67.24023438 46.49926758 C67.24976789 49.3676654 67.28070536 52.23529145 67.3125 55.10351562 C67.51716607 90.51285234 57.4248853 122.04099274 34 149 C33.46761719 149.65355469 32.93523437 150.30710938 32.38671875 150.98046875 C26.75302024 157.8593513 19.81708011 163.19866751 12.875 168.6875 C11.99618164 169.38311035 11.99618164 169.38311035 11.09960938 170.09277344 C9.95601778 170.98817858 8.80536825 171.87465087 7.64746094 172.75146484 C6.10363126 173.92146261 4.58587576 175.1256429 3.0703125 176.33203125 C-0.71838944 178.39027009 -3.82367234 178.84940521 -8 178 C-10.57188755 176.64652949 -12.50739456 175.44616965 -14.75 173.6875 C-15.34852783 173.23818115 -15.94705566 172.7888623 -16.5637207 172.32592773 C-22.73998601 167.60328563 -28.41337585 162.39660292 -34 157 C-34.93714844 156.12601563 -35.87429687 155.25203125 -36.83984375 154.3515625 C-60.24456549 131.96443736 -73.71072079 100.78376526 -75.10700989 68.5279541 C-75.16260743 66.02216193 -75.1906141 63.51809334 -75.203125 61.01171875 C-75.20882507 60.10549271 -75.21452515 59.19926666 -75.22039795 58.26557922 C-75.22976463 56.36904033 -75.23634832 54.47248578 -75.24023438 52.57592773 C-75.25003452 49.67728979 -75.28117307 46.77933446 -75.3125 43.88085938 C-75.31902289 42.02865 -75.32427615 40.17643562 -75.328125 38.32421875 C-75.3404718 37.46269699 -75.3528186 36.60117523 -75.36553955 35.71354675 C-75.34820063 31.04405211 -75.21500534 27.67810122 -72 24 C-69.85791016 22.94555664 -69.85791016 22.94555664 -67.4140625 22.34765625 C-66.52364258 22.1170752 -65.63322266 21.88649414 -64.71582031 21.64892578 C-63.81959961 21.43478027 -62.92337891 21.22063477 -62 21 C-60.42348737 20.58578786 -58.84793111 20.16791556 -57.2734375 19.74609375 C-56.48098633 19.53654053 -55.68853516 19.3269873 -54.87207031 19.11108398 C-45.73183796 16.64550899 -36.98780393 13.5833294 -28.25 9.9375 C-27.26306152 9.5262085 -26.27612305 9.11491699 -25.25927734 8.69116211 C-20.7456368 6.76162879 -16.49360321 4.74121481 -12.296875 2.19140625 C-8.19001245 -0.11060789 -4.6620545 -1.06856702 0 0 Z " fill="#E8E5E2" transform="translate(132,39)"/>
<path d="M0 0 C3.439226 1.63840545 6.76468671 3.46732003 10.09033203 5.32324219 C28.94286792 15.68592274 48.58633592 22.1017113 69.76416016 25.73144531 C78.58979148 27.30421623 85.33606086 29.5188814 90.98828125 36.70703125 C95.24569683 42.82706615 96.3523084 48.28313931 96.39941406 55.61328125 C96.40902161 56.8264502 96.41862915 58.03961914 96.42852783 59.28955078 C96.43490265 61.25190674 96.43490265 61.25190674 96.44140625 63.25390625 C96.44564732 64.26683746 96.44564732 64.26683746 96.44997406 65.30023193 C96.46495708 68.89058823 96.47418579 72.48090461 96.47851562 76.07128906 C96.48286081 78.99785096 96.49659727 81.92411147 96.51953125 84.85058594 C96.67579501 105.20520768 96.5750122 125.4722198 90.55078125 145.12890625 C90.29586914 145.98387695 90.04095703 146.83884766 89.77832031 147.71972656 C83.46089151 168.21174472 73.75742139 186.83103521 60.23828125 203.50390625 C59.57771729 204.3247168 59.57771729 204.3247168 58.90380859 205.16210938 C44.11630587 223.41117361 17.95044152 251.89726218 -6.625 254.84765625 C-26.39885786 255.74341425 -44.51624665 239.93781542 -58.76171875 227.50390625 C-59.26767578 227.06498047 -59.77363281 226.62605469 -60.29492188 226.17382812 C-79.00469131 209.82835519 -93.61589744 190.21453543 -103.76171875 167.50390625 C-104.17478271 166.58279053 -104.17478271 166.58279053 -104.59619141 165.64306641 C-116.05052913 139.64814083 -118.28810755 113.16520007 -118.15283203 85.0703125 C-118.13554585 81.44289001 -118.14575156 77.8161244 -118.16354942 74.18872452 C-118.17443572 71.35234694 -118.17092221 68.51612333 -118.16316605 65.67974091 C-118.16023937 63.70073506 -118.16922482 61.72172282 -118.17855835 59.74273682 C-118.09320622 48.79566715 -116.25513588 40.68530461 -108.76171875 32.50390625 C-102.79000702 26.9800729 -94.30805953 26.53289352 -86.58251953 25.09960938 C-66.16155168 21.26044973 -47.78364876 14.4252461 -29.70703125 4.21875 C-19.96106127 -1.17142051 -10.96425445 -4.72466335 0 0 Z M-20.94921875 21.50390625 C-39.71003748 32.59434916 -60.14877132 38.99001678 -81.37890625 43.390625 C-82.2822168 43.58188965 -83.18552734 43.7731543 -84.11621094 43.97021484 C-85.85489941 44.32096909 -87.60089698 44.63754847 -89.35253906 44.91650391 C-90.15014648 45.05491699 -90.94775391 45.19333008 -91.76953125 45.3359375 C-92.46965332 45.44268799 -93.16977539 45.54943848 -93.89111328 45.65942383 C-96.71210019 46.93295472 -97.39564491 48.77356554 -98.76171875 51.50390625 C-99.21091164 54.32482401 -99.21091164 54.32482401 -99.14990234 57.35375977 C-99.15935883 58.51009415 -99.16881531 59.66642853 -99.17855835 60.85780334 C-99.17248566 62.10355637 -99.16641296 63.34930939 -99.16015625 64.6328125 C-99.16302643 65.93226303 -99.16589661 67.23171356 -99.16885376 68.57054138 C-99.17327509 71.32863021 -99.16686821 74.08642758 -99.15283203 76.84448242 C-99.13598929 80.31729614 -99.14570479 83.78940781 -99.16315556 87.26219559 C-99.36509116 134.60996666 -86.09732381 173.27037243 -52.76171875 207.50390625 C-50.19980027 209.9835141 -47.5391749 212.26933856 -44.76171875 214.50390625 C-43.80652344 215.27347656 -42.85132813 216.04304687 -41.8671875 216.8359375 C-34.16120084 222.9416962 -26.09189798 228.29473757 -17.76171875 233.50390625 C-16.27671875 234.49390625 -16.27671875 234.49390625 -14.76171875 235.50390625 C-3.27018608 236.68322822 7.60711827 226.90715168 16.19921875 220.0234375 C19.90658435 216.94985034 23.50286483 213.78028149 27.0390625 210.51171875 C28.91129657 208.80243223 30.8235866 207.21247176 32.80078125 205.62890625 C37.6152649 201.52475625 41.36127835 196.47090829 45.23828125 191.50390625 C45.98335937 190.57449219 46.7284375 189.64507812 47.49609375 188.6875 C67.97820896 162.46040125 77.56332931 130.91874093 77.5390625 97.87109375 C77.54296573 96.5368741 77.54730362 95.20265565 77.55204773 93.86843872 C77.55941509 91.10723789 77.55928403 88.34616523 77.55395508 85.58496094 C77.54809943 82.05564662 77.56528164 78.52684679 77.58829975 74.99761772 C77.60656414 71.60125437 77.60285367 68.20500593 77.6015625 64.80859375 C77.61537712 62.91643631 77.61537712 62.91643631 77.62947083 60.98605347 C77.62324203 59.81358063 77.61701324 58.64110779 77.6105957 57.43310547 C77.61122513 56.40579315 77.61185455 55.37848083 77.61250305 54.32003784 C77.17198277 51.00499022 76.27658289 49.14356524 74.23828125 46.50390625 C71.46705763 45.57816776 69.08577028 44.97673196 66.23828125 44.50390625 C65.51721191 44.36936035 64.79614258 44.23481445 64.05322266 44.09619141 C62.53391961 43.81279637 61.01351353 43.53526575 59.4921875 43.26293945 C36.70323236 39.09483956 14.87234944 30.55056942 -5.03515625 18.71875 C-11.37940282 15.8920155 -15.41722104 18.05991523 -20.94921875 21.50390625 Z " fill="#E7E5E2" transform="translate(138.76171875,1.49609375)"/>
</svg>
