<?xml version="1.0" encoding="UTF-8"?>
<svg version="1.1" xmlns="http://www.w3.org/2000/svg" width="256" height="256">
<path d="M0 0 C1.7687388 1.5201313 3.51921359 3.06179351 5.25 4.625 C6.09175781 5.38425781 6.93351563 6.14351562 7.80078125 6.92578125 C27.16434755 25.32568639 37.99047181 50.19446627 40.25 76.625 C40.27774829 78.95816833 40.2857557 81.29194064 40.25 83.625 C39.00347656 83.60179688 37.75695312 83.57859375 36.47265625 83.5546875 C14.58397862 83.2668779 -12.19569222 84.21089144 -29.29296875 99.96875 C-34.5186271 105.66610495 -35.89369985 109.43215011 -35.95532227 117.12573242 C-35.96522186 117.88694901 -35.97512146 118.64816559 -35.98532104 119.43244934 C-36.01690729 121.94842418 -36.04168209 124.46441789 -36.06640625 126.98046875 C-36.08697826 128.72496532 -36.1079748 130.46945693 -36.12937927 132.21394348 C-36.18457442 136.80553167 -36.23399499 141.39716465 -36.28222656 145.98883057 C-36.33246024 150.67423489 -36.38813657 155.35957417 -36.44335938 160.04492188 C-36.55090968 169.23822568 -36.65236162 178.43158596 -36.75 187.625 C-38.82639323 188.11251084 -40.90331987 188.59775014 -42.98046875 189.08203125 C-44.13699951 189.35249268 -45.29353027 189.6229541 -46.48510742 189.90161133 C-73.70348113 195.93227321 -102.36729708 189.02448527 -125.75 174.625 C-149.49397242 159.01226574 -165.89134685 134.82768412 -172.30981445 107.21679688 C-178.01321872 79.26884002 -173.08628542 49.65588545 -157.41015625 25.80957031 C-143.16494837 4.94549529 -123.93540985 -10.54267127 -99.75 -18.375 C-99.10853027 -18.58527832 -98.46706055 -18.79555664 -97.80615234 -19.01220703 C-64.86441286 -29.26237135 -26.80595958 -21.34688073 0 0 Z M-75.75 23.625 C-76.96983748 26.06467497 -76.87051527 27.62404524 -76.86352539 30.35009766 C-76.86344986 31.33096344 -76.86337433 32.31182922 -76.86329651 33.32241821 C-76.85813522 34.38391083 -76.85297394 35.44540344 -76.84765625 36.5390625 C-76.84553383 38.16622696 -76.84553383 38.16622696 -76.84336853 39.82626343 C-76.83775802 43.30087 -76.82520372 46.77541281 -76.8125 50.25 C-76.80748635 52.60156157 -76.80292321 54.95312415 -76.79882812 57.3046875 C-76.78778518 63.07814686 -76.77103679 68.85156888 -76.75 74.625 C-77.96582764 74.60405273 -79.18165527 74.58310547 -80.43432617 74.56152344 C-84.95357443 74.48901684 -89.47277146 74.44316144 -93.99243164 74.40527344 C-95.94694673 74.38518226 -97.9014019 74.35790411 -99.85571289 74.32324219 C-102.66828208 74.27461399 -105.48005527 74.2520064 -108.29296875 74.234375 C-109.16398727 74.21372986 -110.0350058 74.19308472 -110.93241882 74.17181396 C-115.07445784 74.17028874 -117.19148187 74.27471616 -120.77856445 76.52441406 C-123.81212482 79.7567055 -124.1459085 82.13756447 -124.10546875 86.5859375 C-123.50359564 90.03844041 -121.43176469 91.56690152 -118.75 93.625 C-115.84107706 94.59464098 -113.94373392 94.76218151 -110.91479492 94.78613281 C-109.93335007 94.79574036 -108.95190521 94.8053479 -107.9407196 94.81524658 C-106.35164543 94.8216214 -106.35164543 94.8216214 -104.73046875 94.828125 C-103.63914139 94.83382507 -102.54781403 94.83952515 -101.42341614 94.84539795 C-99.11260956 94.85484864 -96.80178949 94.8613822 -94.4909668 94.86523438 C-90.96183652 94.87493312 -87.43329028 94.90595372 -83.90429688 94.9375 C-81.65885762 94.94403085 -79.41341421 94.949281 -77.16796875 94.953125 C-76.11465866 94.9654718 -75.06134857 94.9778186 -73.97612 94.99053955 C-68.51405 94.97399682 -64.40128559 94.84044781 -59.75 91.625 C-57.41285242 88.11927863 -57.47856631 86.63993215 -57.42773438 82.48876953 C-57.40851929 81.22380646 -57.3893042 79.95884338 -57.36950684 78.6555481 C-57.35981104 77.2729769 -57.35125333 75.89039733 -57.34375 74.5078125 C-57.33224219 73.08918248 -57.32072678 71.67055251 -57.3092041 70.25192261 C-57.28820214 67.27779697 -57.27650509 64.30377918 -57.26953125 61.32958984 C-57.2585622 57.52373705 -57.21050736 53.71931571 -57.15358734 49.91391182 C-57.11628531 46.9833056 -57.10592102 44.05304262 -57.1028595 41.12221909 C-57.09681644 39.71956426 -57.08079199 38.31691477 -57.05448914 36.91449356 C-56.6549657 29.46988 -56.6549657 29.46988 -59.00488281 22.64569092 C-61.65565716 20.29842692 -63.83580811 19.61145135 -67.3125 19.0625 C-71.27374737 19.71070411 -72.93799374 20.81299374 -75.75 23.625 Z " fill="#E8E5E2" transform="translate(173.75,22.375)"/>
<path d="M0 0 C1.48101196 0.74467529 1.48101196 0.74467529 2.99194336 1.50439453 C29.86701508 14.87740328 62.94054303 15.99574042 91.5 7.125 C96.90691214 5.27263195 101.92091557 2.59550666 107 0 C107.14925086 4.28656134 107.2576289 8.57171473 107.32958984 12.86010742 C107.35961041 14.31610483 107.40044228 15.77192369 107.45263672 17.22729492 C107.92956549 30.87587422 107.92956549 30.87587422 104.28125 35.328125 C88.52891246 49.61281025 60.7133914 48.86072554 41 48 C27.26031642 46.89180105 12.25279412 43.84914081 2 34 C-0.48360441 30.27459338 -0.2315867 28.36937027 -0.1953125 23.92578125 C-0.1924826 23.2419487 -0.18965271 22.55811615 -0.18673706 21.8535614 C-0.17555684 19.67302835 -0.15045691 17.49290855 -0.125 15.3125 C-0.11496738 13.83268823 -0.10584202 12.35287001 -0.09765625 10.87304688 C-0.07562481 7.248564 -0.04111002 3.62432234 0 0 Z " fill="#E7E5E2" transform="translate(149,160)"/>
<path d="M0 0 C2.94132997 1.13243709 5.55699078 2.3152778 8.3125 3.875 C31.60806501 15.58834226 65.12901173 14.69695431 89.4519043 7.20263672 C95.02928766 5.34610515 100.03180008 3.11956739 105 0 C105.66 0 106.32 0 107 0 C107.07441989 4.18087152 107.12872818 8.3613873 107.16479492 12.54272461 C107.1798376 13.96369141 107.20027704 15.38461213 107.22631836 16.80541992 C107.26290347 18.85346886 107.27977097 20.9009015 107.29296875 22.94921875 C107.3086792 24.17987061 107.32438965 25.41052246 107.34057617 26.6784668 C106.97048831 30.28781831 106.14856551 32.11396446 104 35 C90.03781669 46.25982525 71.09085228 47.42348416 53.9375 47.375 C53.21277496 47.37445618 52.48804993 47.37391235 51.74136353 47.37335205 C35.20816531 47.31639837 15.44742833 46.5021062 2.8125 34.1875 C2.214375 33.465625 1.61625 32.74375 1 32 C0.67 31.67 0.34 31.34 0 31 C-0.08790975 28.70848583 -0.10694038 26.41427476 -0.09765625 24.12109375 C-0.0962413 23.4344313 -0.09482635 22.74776886 -0.09336853 22.04029846 C-0.08775479 19.83932199 -0.07520007 17.63844591 -0.0625 15.4375 C-0.05748676 13.94856917 -0.05292355 12.45963676 -0.04882812 10.97070312 C-0.03778093 7.31376925 -0.02050713 3.65689442 0 0 Z " fill="#E7E5E2" transform="translate(149,209)"/>
<path d="M0 0 C1.04253937 -0.00101212 1.04253937 -0.00101212 2.10614014 -0.00204468 C19.42862174 0.02471147 38.41825775 1.14169485 51.671875 13.69921875 C54.32334228 16.65605164 54.40987837 19.30589839 54.33203125 23.2265625 C53.80226753 27.20362928 51.47315731 29.14453298 48.4375 31.5234375 C27.91728748 45.63108361 -3.13367596 44.06175273 -26.52685547 39.75048828 C-36.20772328 37.74058561 -44.79820226 34.28300546 -51.9375 27.25 C-53.57555764 23.97388472 -53.58301476 20.77796184 -52.9375 17.25 C-49.61420721 10.83985423 -43.44665098 7.7122312 -36.9375 5.25 C-24.56543964 1.40637874 -12.93287067 0.0112281 0 0 Z " fill="#E8E5E2" transform="translate(201.9375,117.75)"/>
</svg>
